<mxfile host="app.diagrams.net" agent="Mozilla/5.0 (Windows NT 10.0; Win64; x64) AppleWebKit/537.36 (KHTML, like Gecko) Chrome/129.0.0.0 Safari/537.36" version="24.7.16">
  <diagram name="Page-1" id="BcAm9EajrM9fSYBe5r1U">
    <mxGraphModel dx="8074" dy="1098" grid="1" gridSize="10" guides="1" tooltips="1" connect="1" arrows="1" fold="1" page="1" pageScale="1" pageWidth="1200" pageHeight="1920" math="0" shadow="0">
      <root>
        <mxCell id="0" />
        <mxCell id="1" parent="0" />
        <UserObject label="" plantUmlData="{&#xa;  &quot;data&quot;: &quot;@startuml\nactor \&quot;Pasajero\&quot; as Pasajero\nactor \&quot;Conductor\&quot; as Conductor\nactor \&quot;Administrador\&quot; as Administrador\nactor \&quot;Soporte\&quot; as Soporte\nactor \&quot;Sistema de Pagos\&quot; as SistemaPagos\nactor \&quot;Sistema de Notificaciones\&quot; as SistemaNotificaciones\nactor \&quot;Sistema de Geolocalización\&quot; as SistemaGeolocalizacion\n\nusecase \&quot;Registrarse\&quot; as UC1\nusecase \&quot;Iniciar Sesión\&quot; as UC2\nusecase \&quot;Solicitar Viaje\&quot; as UC3\nusecase \&quot;Calificar Conductor\&quot; as UC4\nusecase \&quot;Ver Historial de Viajes\&quot; as UC5\nusecase \&quot;Agregar Método de Pago\&quot; as UC6\nusecase \&quot;Ver Perfil\&quot; as UC7\nusecase \&quot;Actualizar Perfil\&quot; as UC8\nusecase \&quot;Recibir Notificaciones\&quot; as UC9\nusecase \&quot;Contactar Soporte\&quot; as UC10\nusecase \&quot;Aplicar Promociones\&quot; as UC11\nusecase \&quot;Compartir Estado del Viaje\&quot; as UC12\nusecase \&quot;Rastrear Conductor en Tiempo Real\&quot; as UC13\n\nusecase \&quot;Aceptar Viaje\&quot; as UC14\nusecase \&quot;Finalizar Viaje\&quot; as UC15\nusecase \&quot;Calificar Pasajero\&quot; as UC16\nusecase \&quot;Ver Historial de Viajes\&quot; as UC17\nusecase \&quot;Ver Perfil\&quot; as UC18\nusecase \&quot;Actualizar Perfil\&quot; as UC19\nusecase \&quot;Ver Rutas Sugeridas\&quot; as UC20\nusecase \&quot;Contactar Pasajero\&quot; as UC21\nusecase \&quot;Recibir Notificaciones\&quot; as UC22\n\nusecase \&quot;Administrar Conductores\&quot; as UC23\nusecase \&quot;Administrar Pasajeros\&quot; as UC24\nusecase \&quot;Ver Reportes de Actividad\&quot; as UC25\nusecase \&quot;Gestionar Pagos\&quot; as UC26\nusecase \&quot;Gestionar Promociones\&quot; as UC27\nusecase \&quot;Monitorear Viajes en Tiempo Real\&quot; as UC28\nusecase \&quot;Generar Análisis de Datos\&quot; as UC29\n\nusecase \&quot;Procesar Pagos\&quot; as UC30\nusecase \&quot;Enviar Notificaciones\&quot; as UC31\nusecase \&quot;Proveer Datos de Geolocalización\&quot; as UC32\n\nPasajero --&gt; UC1\nPasajero --&gt; UC2\nPasajero --&gt; UC3\nPasajero --&gt; UC4\nPasajero --&gt; UC5\nPasajero --&gt; UC6\nPasajero --&gt; UC7\nPasajero --&gt; UC8\nPasajero --&gt; UC9\nPasajero --&gt; UC10\nPasajero --&gt; UC11\nPasajero --&gt; UC12\nPasajero --&gt; UC13\n\nConductor --&gt; UC2\nConductor --&gt; UC14\nConductor --&gt; UC15\nConductor --&gt; UC16\nConductor --&gt; UC17\nConductor --&gt; UC18\nConductor --&gt; UC19\nConductor --&gt; UC20\nConductor --&gt; UC21\nConductor --&gt; UC22\n\nAdministrador --&gt; UC23\nAdministrador --&gt; UC24\nAdministrador --&gt; UC25\nAdministrador --&gt; UC26\nAdministrador --&gt; UC27\nAdministrador --&gt; UC28\nAdministrador --&gt; UC29\n\nSistemaPagos --&gt; UC30\nSistemaNotificaciones --&gt; UC31\nSistemaGeolocalizacion --&gt; UC32\n\nUC2 &lt;-- UC1 : include\nUC3 --&gt; SistemaPagos : &lt;&lt;extend&gt;&gt;\nUC3 --&gt; SistemaNotificaciones : &lt;&lt;extend&gt;&gt;\nUC3 --&gt; SistemaGeolocalizacion : &lt;&lt;extend&gt;&gt;\nUC14 --&gt; SistemaGeolocalizacion : &lt;&lt;extend&gt;&gt;\nUC15 --&gt; SistemaPagos : &lt;&lt;extend&gt;&gt;\nUC9 --&gt; SistemaNotificaciones : &lt;&lt;include&gt;&gt;\nUC22 --&gt; SistemaNotificaciones : &lt;&lt;include&gt;&gt;\nUC12 --&gt; SistemaNotificaciones : &lt;&lt;include&gt;&gt;\nUC13 --&gt; SistemaGeolocalizacion : &lt;&lt;include&gt;&gt;\n\nSoporte --&gt; UC10\n\n@enduml\n&quot;,&#xa;  &quot;format&quot;: &quot;svg&quot;&#xa;}" id="QNh6IfQwhYWlKLYQW3Lv-3">
          <mxCell style="shape=image;noLabel=1;verticalAlign=top;aspect=fixed;imageAspect=0;image=data:image/svg+xml,PD94bWwgdmVyc2lvbj0iMS4wIiBlbmNvZGluZz0idXMtYXNjaWkiIHN0YW5kYWxvbmU9Im5vIj8+PHN2ZyB4bWxucz0iaHR0cDovL3d3dy53My5vcmcvMjAwMC9zdmciIHhtbG5zOnhsaW5rPSJodHRwOi8vd3d3LnczLm9yZy8xOTk5L3hsaW5rIiBjb250ZW50U3R5bGVUeXBlPSJ0ZXh0L2NzcyIgaGVpZ2h0PSI0NzFweCIgcHJlc2VydmVBc3BlY3RSYXRpbz0ibm9uZSIgc3R5bGU9IndpZHRoOjU5MzhweDtoZWlnaHQ6NDcxcHg7YmFja2dyb3VuZDojRkZGRkZGOyIgdmVyc2lvbj0iMS4xIiB2aWV3Qm94PSIwIDAgNTkzOCA0NzEiIHdpZHRoPSI1OTM4cHgiIHpvb21BbmRQYW49Im1hZ25pZnkiPjxkZWZzLz48Zz48IS0tZW50aXR5IFBhc2FqZXJvLS0+PGcgaWQ9ImVsZW1fUGFzYWplcm8iPjxlbGxpcHNlIGN4PSIyOTU0LjUiIGN5PSIxNCIgZmlsbD0iI0YxRjFGMSIgcng9IjgiIHJ5PSI4IiBzdHlsZT0ic3Ryb2tlOiMxODE4MTg7c3Ryb2tlLXdpZHRoOjAuNTsiLz48cGF0aCBkPSJNMjk1NC41LDIyIEwyOTU0LjUsNDkgTTI5NDEuNSwzMCBMMjk2Ny41LDMwIE0yOTU0LjUsNDkgTDI5NDEuNSw2NCBNMjk1NC41LDQ5IEwyOTY3LjUsNjQgIiBmaWxsPSJub25lIiBzdHlsZT0ic3Ryb2tlOiMxODE4MTg7c3Ryb2tlLXdpZHRoOjAuNTsiLz48dGV4dCBmaWxsPSIjMDAwMDAwIiBmb250LWZhbWlseT0ic2Fucy1zZXJpZiIgZm9udC1zaXplPSIxNCIgbGVuZ3RoQWRqdXN0PSJzcGFjaW5nIiB0ZXh0TGVuZ3RoPSI1NiIgeD0iMjkyNi41IiB5PSI3OC43MzQ0Ij5QYXNhamVybzwvdGV4dD48L2c+PCEtLWVudGl0eSBDb25kdWN0b3ItLT48ZyBpZD0iZWxlbV9Db25kdWN0b3IiPjxlbGxpcHNlIGN4PSI5NTYuNSIgY3k9IjE0IiBmaWxsPSIjRjFGMUYxIiByeD0iOCIgcnk9IjgiIHN0eWxlPSJzdHJva2U6IzE4MTgxODtzdHJva2Utd2lkdGg6MC41OyIvPjxwYXRoIGQ9Ik05NTYuNSwyMiBMOTU2LjUsNDkgTTk0My41LDMwIEw5NjkuNSwzMCBNOTU2LjUsNDkgTDk0My41LDY0IE05NTYuNSw0OSBMOTY5LjUsNjQgIiBmaWxsPSJub25lIiBzdHlsZT0ic3Ryb2tlOiMxODE4MTg7c3Ryb2tlLXdpZHRoOjAuNTsiLz48dGV4dCBmaWxsPSIjMDAwMDAwIiBmb250LWZhbWlseT0ic2Fucy1zZXJpZiIgZm9udC1zaXplPSIxNCIgbGVuZ3RoQWRqdXN0PSJzcGFjaW5nIiB0ZXh0TGVuZ3RoPSI2MyIgeD0iOTI1IiB5PSI3OC43MzQ0Ij5Db25kdWN0b3I8L3RleHQ+PC9nPjwhLS1lbnRpdHkgQWRtaW5pc3RyYWRvci0tPjxnIGlkPSJlbGVtX0FkbWluaXN0cmFkb3IiPjxlbGxpcHNlIGN4PSI1MTA5LjUiIGN5PSIxNCIgZmlsbD0iI0YxRjFGMSIgcng9IjgiIHJ5PSI4IiBzdHlsZT0ic3Ryb2tlOiMxODE4MTg7c3Ryb2tlLXdpZHRoOjAuNTsiLz48cGF0aCBkPSJNNTEwOS41LDIyIEw1MTA5LjUsNDkgTTUwOTYuNSwzMCBMNTEyMi41LDMwIE01MTA5LjUsNDkgTDUwOTYuNSw2NCBNNTEwOS41LDQ5IEw1MTIyLjUsNjQgIiBmaWxsPSJub25lIiBzdHlsZT0ic3Ryb2tlOiMxODE4MTg7c3Ryb2tlLXdpZHRoOjAuNTsiLz48dGV4dCBmaWxsPSIjMDAwMDAwIiBmb250LWZhbWlseT0ic2Fucy1zZXJpZiIgZm9udC1zaXplPSIxNCIgbGVuZ3RoQWRqdXN0PSJzcGFjaW5nIiB0ZXh0TGVuZ3RoPSI5MiIgeD0iNTA2My41IiB5PSI3OC43MzQ0Ij5BZG1pbmlzdHJhZG9yPC90ZXh0PjwvZz48IS0tZW50aXR5IFNvcG9ydGUtLT48ZyBpZD0iZWxlbV9Tb3BvcnRlIj48ZWxsaXBzZSBjeD0iNDIzMy41IiBjeT0iMTQiIGZpbGw9IiNGMUYxRjEiIHJ4PSI4IiByeT0iOCIgc3R5bGU9InN0cm9rZTojMTgxODE4O3N0cm9rZS13aWR0aDowLjU7Ii8+PHBhdGggZD0iTTQyMzMuNSwyMiBMNDIzMy41LDQ5IE00MjIwLjUsMzAgTDQyNDYuNSwzMCBNNDIzMy41LDQ5IEw0MjIwLjUsNjQgTTQyMzMuNSw0OSBMNDI0Ni41LDY0ICIgZmlsbD0ibm9uZSIgc3R5bGU9InN0cm9rZTojMTgxODE4O3N0cm9rZS13aWR0aDowLjU7Ii8+PHRleHQgZmlsbD0iIzAwMDAwMCIgZm9udC1mYW1pbHk9InNhbnMtc2VyaWYiIGZvbnQtc2l6ZT0iMTQiIGxlbmd0aEFkanVzdD0ic3BhY2luZyIgdGV4dExlbmd0aD0iNDkiIHg9IjQyMDkiIHk9Ijc4LjczNDQiPlNvcG9ydGU8L3RleHQ+PC9nPjwhLS1lbnRpdHkgU2lzdGVtYVBhZ29zLS0+PGcgaWQ9ImVsZW1fU2lzdGVtYVBhZ29zIj48ZWxsaXBzZSBjeD0iMTYzNS41IiBjeT0iMjgyIiBmaWxsPSIjRjFGMUYxIiByeD0iOCIgcnk9IjgiIHN0eWxlPSJzdHJva2U6IzE4MTgxODtzdHJva2Utd2lkdGg6MC41OyIvPjxwYXRoIGQ9Ik0xNjM1LjUsMjkwIEwxNjM1LjUsMzE3IE0xNjIyLjUsMjk4IEwxNjQ4LjUsMjk4IE0xNjM1LjUsMzE3IEwxNjIyLjUsMzMyIE0xNjM1LjUsMzE3IEwxNjQ4LjUsMzMyICIgZmlsbD0ibm9uZSIgc3R5bGU9InN0cm9rZTojMTgxODE4O3N0cm9rZS13aWR0aDowLjU7Ii8+PHRleHQgZmlsbD0iIzAwMDAwMCIgZm9udC1mYW1pbHk9InNhbnMtc2VyaWYiIGZvbnQtc2l6ZT0iMTQiIGxlbmd0aEFkanVzdD0ic3BhY2luZyIgdGV4dExlbmd0aD0iMTEzIiB4PSIxNTc5IiB5PSIzNDYuNzM0NCI+U2lzdGVtYSBkZSBQYWdvczwvdGV4dD48L2c+PCEtLWVudGl0eSBTaXN0ZW1hTm90aWZpY2FjaW9uZXMtLT48ZyBpZD0iZWxlbV9TaXN0ZW1hTm90aWZpY2FjaW9uZXMiPjxlbGxpcHNlIGN4PSIyNjI5LjUiIGN5PSIyODIiIGZpbGw9IiNGMUYxRjEiIHJ4PSI4IiByeT0iOCIgc3R5bGU9InN0cm9rZTojMTgxODE4O3N0cm9rZS13aWR0aDowLjU7Ii8+PHBhdGggZD0iTTI2MjkuNSwyOTAgTDI2MjkuNSwzMTcgTTI2MTYuNSwyOTggTDI2NDIuNSwyOTggTTI2MjkuNSwzMTcgTDI2MTYuNSwzMzIgTTI2MjkuNSwzMTcgTDI2NDIuNSwzMzIgIiBmaWxsPSJub25lIiBzdHlsZT0ic3Ryb2tlOiMxODE4MTg7c3Ryb2tlLXdpZHRoOjAuNTsiLz48dGV4dCBmaWxsPSIjMDAwMDAwIiBmb250LWZhbWlseT0ic2Fucy1zZXJpZiIgZm9udC1zaXplPSIxNCIgbGVuZ3RoQWRqdXN0PSJzcGFjaW5nIiB0ZXh0TGVuZ3RoPSIxNzYiIHg9IjI1NDEuNSIgeT0iMzQ2LjczNDQiPlNpc3RlbWEgZGUgTm90aWZpY2FjaW9uZXM8L3RleHQ+PC9nPjwhLS1lbnRpdHkgU2lzdGVtYUdlb2xvY2FsaXphY2lvbi0tPjxnIGlkPSJlbGVtX1Npc3RlbWFHZW9sb2NhbGl6YWNpb24iPjxlbGxpcHNlIGN4PSIxOTAxLjUiIGN5PSIyODIiIGZpbGw9IiNGMUYxRjEiIHJ4PSI4IiByeT0iOCIgc3R5bGU9InN0cm9rZTojMTgxODE4O3N0cm9rZS13aWR0aDowLjU7Ii8+PHBhdGggZD0iTTE5MDEuNSwyOTAgTDE5MDEuNSwzMTcgTTE4ODguNSwyOTggTDE5MTQuNSwyOTggTTE5MDEuNSwzMTcgTDE4ODguNSwzMzIgTTE5MDEuNSwzMTcgTDE5MTQuNSwzMzIgIiBmaWxsPSJub25lIiBzdHlsZT0ic3Ryb2tlOiMxODE4MTg7c3Ryb2tlLXdpZHRoOjAuNTsiLz48dGV4dCBmaWxsPSIjMDAwMDAwIiBmb250LWZhbWlseT0ic2Fucy1zZXJpZiIgZm9udC1zaXplPSIxNCIgbGVuZ3RoQWRqdXN0PSJzcGFjaW5nIiB0ZXh0TGVuZ3RoPSIxODMiIHg9IjE4MTAiIHk9IjM0Ni43MzQ0Ij5TaXN0ZW1hIGRlIEdlb2xvY2FsaXphY2kmIzI0MztuPC90ZXh0PjwvZz48ZyBpZD0iZWxlbV9VQzEiPjxlbGxpcHNlIGN4PSIxNDczLjY2ODUiIGN5PSIzMTEuMTMzNyIgZmlsbD0iI0YxRjFGMSIgcng9IjYxLjE2ODUiIHJ5PSIxNC42MzM3IiBzdHlsZT0ic3Ryb2tlOiMxODE4MTg7c3Ryb2tlLXdpZHRoOjAuNTsiLz48dGV4dCBmaWxsPSIjMDAwMDAwIiBmb250LWZhbWlseT0ic2Fucy1zZXJpZiIgZm9udC1zaXplPSIxNCIgbGVuZ3RoQWRqdXN0PSJzcGFjaW5nIiB0ZXh0TGVuZ3RoPSI3NyIgeD0iMTQzNS4xNjg1IiB5PSIzMTQuODc1OSI+UmVnaXN0cmFyc2U8L3RleHQ+PC9nPjxnIGlkPSJlbGVtX1VDMiI+PGVsbGlwc2UgY3g9IjE0MjkuNTQ1NiIgY3k9IjE2OS44MDkxIiBmaWxsPSIjRjFGMUYxIiByeD0iNjkuNTQ1NiIgcnk9IjE2LjMwOTEiIHN0eWxlPSJzdHJva2U6IzE4MTgxODtzdHJva2Utd2lkdGg6MC41OyIvPjx0ZXh0IGZpbGw9IiMwMDAwMDAiIGZvbnQtZmFtaWx5PSJzYW5zLXNlcmlmIiBmb250LXNpemU9IjE0IiBsZW5ndGhBZGp1c3Q9InNwYWNpbmciIHRleHRMZW5ndGg9Ijk4IiB4PSIxMzgwLjU0NTYiIHk9IjE3My41NTEzIj5JbmljaWFyIFNlc2kmIzI0MztuPC90ZXh0PjwvZz48ZyBpZD0iZWxlbV9VQzMiPjxlbGxpcHNlIGN4PSIxODQ2LjQ2NjMiIGN5PSIxNjkuODkzMyIgZmlsbD0iI0YxRjFGMSIgcng9IjcyLjQ2NjMiIHJ5PSIxNi44OTMzIiBzdHlsZT0ic3Ryb2tlOiMxODE4MTg7c3Ryb2tlLXdpZHRoOjAuNTsiLz48dGV4dCBmaWxsPSIjMDAwMDAwIiBmb250LWZhbWlseT0ic2Fucy1zZXJpZiIgZm9udC1zaXplPSIxNCIgbGVuZ3RoQWRqdXN0PSJzcGFjaW5nIiB0ZXh0TGVuZ3RoPSIxMDUiIHg9IjE3OTMuOTY2MyIgeT0iMTczLjYzNTUiPlNvbGljaXRhciBWaWFqZTwvdGV4dD48L2c+PGcgaWQ9ImVsZW1fVUM0Ij48ZWxsaXBzZSBjeD0iMzU4MS42MDYyIiBjeT0iMTY5LjgyMTIiIGZpbGw9IiNGMUYxRjEiIHJ4PSI4NC42MDYyIiByeT0iMTkuMzIxMiIgc3R5bGU9InN0cm9rZTojMTgxODE4O3N0cm9rZS13aWR0aDowLjU7Ii8+PHRleHQgZmlsbD0iIzAwMDAwMCIgZm9udC1mYW1pbHk9InNhbnMtc2VyaWYiIGZvbnQtc2l6ZT0iMTQiIGxlbmd0aEFkanVzdD0ic3BhY2luZyIgdGV4dExlbmd0aD0iMTMzIiB4PSIzNTE1LjEwNjIiIHk9IjE3My41NjM0Ij5DYWxpZmljYXIgQ29uZHVjdG9yPC90ZXh0PjwvZz48ZyBpZD0iZWxlbV9VQzUiPjxlbGxpcHNlIGN4PSIzNzk4LjI2MzMiIGN5PSIxNjkuODUyNyIgZmlsbD0iI0YxRjFGMSIgcng9Ijk3LjI2MzMiIHJ5PSIyMS44NTI3IiBzdHlsZT0ic3Ryb2tlOiMxODE4MTg7c3Ryb2tlLXdpZHRoOjAuNTsiLz48dGV4dCBmaWxsPSIjMDAwMDAwIiBmb250LWZhbWlseT0ic2Fucy1zZXJpZiIgZm9udC1zaXplPSIxNCIgbGVuZ3RoQWRqdXN0PSJzcGFjaW5nIiB0ZXh0TGVuZ3RoPSIxNjEiIHg9IjM3MTcuNzYzMyIgeT0iMTczLjU5NDgiPlZlciBIaXN0b3JpYWwgZGUgVmlhamVzPC90ZXh0PjwvZz48ZyBpZD0iZWxlbV9VQzYiPjxlbGxpcHNlIGN4PSI0MDI1LjU2MjIiIGN5PSIxNzAuMjEyNCIgZmlsbD0iI0YxRjFGMSIgcng9Ijk0LjA2MjIiIHJ5PSIyMS4yMTI0IiBzdHlsZT0ic3Ryb2tlOiMxODE4MTg7c3Ryb2tlLXdpZHRoOjAuNTsiLz48dGV4dCBmaWxsPSIjMDAwMDAwIiBmb250LWZhbWlseT0ic2Fucy1zZXJpZiIgZm9udC1zaXplPSIxNCIgbGVuZ3RoQWRqdXN0PSJzcGFjaW5nIiB0ZXh0TGVuZ3RoPSIxNTQiIHg9IjM5NDguNTYyMiIgeT0iMTczLjk1NDYiPkFncmVnYXIgTSYjMjMzO3RvZG8gZGUgUGFnbzwvdGV4dD48L2c+PGcgaWQ9ImVsZW1fVUM3Ij48ZWxsaXBzZSBjeD0iMjUzMi41MzY3IiBjeT0iMTcwLjEwNzMiIGZpbGw9IiNGMUYxRjEiIHJ4PSI1OC41MzY3IiByeT0iMTQuMTA3MyIgc3R5bGU9InN0cm9rZTojMTgxODE4O3N0cm9rZS13aWR0aDowLjU7Ii8+PHRleHQgZmlsbD0iIzAwMDAwMCIgZm9udC1mYW1pbHk9InNhbnMtc2VyaWYiIGZvbnQtc2l6ZT0iMTQiIGxlbmd0aEFkanVzdD0ic3BhY2luZyIgdGV4dExlbmd0aD0iNzAiIHg9IjI0OTcuNTM2NyIgeT0iMTczLjg0OTUiPlZlciBQZXJmaWw8L3RleHQ+PC9nPjxnIGlkPSJlbGVtX1VDOCI+PGVsbGlwc2UgY3g9IjI5NTQuNDU1OCIgY3k9IjE3MC4wOTEyIiBmaWxsPSIjRjFGMUYxIiByeD0iNzguNDU1OCIgcnk9IjE4LjA5MTIiIHN0eWxlPSJzdHJva2U6IzE4MTgxODtzdHJva2Utd2lkdGg6MC41OyIvPjx0ZXh0IGZpbGw9IiMwMDAwMDAiIGZvbnQtZmFtaWx5PSJzYW5zLXNlcmlmIiBmb250LXNpemU9IjE0IiBsZW5ndGhBZGp1c3Q9InNwYWNpbmciIHRleHRMZW5ndGg9IjExOSIgeD0iMjg5NC45NTU4IiB5PSIxNzMuODMzMyI+QWN0dWFsaXphciBQZXJmaWw8L3RleHQ+PC9nPjxnIGlkPSJlbGVtX1VDOSI+PGVsbGlwc2UgY3g9IjMzNjcuNTYyMiIgY3k9IjE3MC4yMTI0IiBmaWxsPSIjRjFGMUYxIiByeD0iOTQuMDYyMiIgcnk9IjIxLjIxMjQiIHN0eWxlPSJzdHJva2U6IzE4MTgxODtzdHJva2Utd2lkdGg6MC41OyIvPjx0ZXh0IGZpbGw9IiMwMDAwMDAiIGZvbnQtZmFtaWx5PSJzYW5zLXNlcmlmIiBmb250LXNpemU9IjE0IiBsZW5ndGhBZGp1c3Q9InNwYWNpbmciIHRleHRMZW5ndGg9IjE1NCIgeD0iMzI5MC41NjIyIiB5PSIxNzMuOTU0NiI+UmVjaWJpciBOb3RpZmljYWNpb25lczwvdGV4dD48L2c+PGcgaWQ9ImVsZW1fVUMxMCI+PGVsbGlwc2UgY3g9IjQyMzMuNDU1OCIgY3k9IjE3MC4wOTEyIiBmaWxsPSIjRjFGMUYxIiByeD0iNzguNDU1OCIgcnk9IjE4LjA5MTIiIHN0eWxlPSJzdHJva2U6IzE4MTgxODtzdHJva2Utd2lkdGg6MC41OyIvPjx0ZXh0IGZpbGw9IiMwMDAwMDAiIGZvbnQtZmFtaWx5PSJzYW5zLXNlcmlmIiBmb250LXNpemU9IjE0IiBsZW5ndGhBZGp1c3Q9InNwYWNpbmciIHRleHRMZW5ndGg9IjExOSIgeD0iNDE3My45NTU4IiB5PSIxNzMuODMzMyI+Q29udGFjdGFyIFNvcG9ydGU8L3RleHQ+PC9nPjxnIGlkPSJlbGVtX1VDMTEiPjxlbGxpcHNlIGN4PSIzMTUzLjU1MDciIGN5PSIxNjkuOTEwMSIgZmlsbD0iI0YxRjFGMSIgcng9Ijg1LjA1MDciIHJ5PSIxOS40MTAxIiBzdHlsZT0ic3Ryb2tlOiMxODE4MTg7c3Ryb2tlLXdpZHRoOjAuNTsiLz48dGV4dCBmaWxsPSIjMDAwMDAwIiBmb250LWZhbWlseT0ic2Fucy1zZXJpZiIgZm9udC1zaXplPSIxNCIgbGVuZ3RoQWRqdXN0PSJzcGFjaW5nIiB0ZXh0TGVuZ3RoPSIxMzQiIHg9IjMwODYuNTUwNyIgeT0iMTczLjY1MjMiPkFwbGljYXIgUHJvbW9jaW9uZXM8L3RleHQ+PC9nPjxnIGlkPSJlbGVtX1VDMTIiPjxlbGxpcHNlIGN4PSIyNzMzLjQ0ODkiIGN5PSIxNjkuODg5OCIgZmlsbD0iI0YxRjFGMSIgcng9IjEwNy40NDg5IiByeT0iMjMuODg5OCIgc3R5bGU9InN0cm9rZTojMTgxODE4O3N0cm9rZS13aWR0aDowLjU7Ii8+PHRleHQgZmlsbD0iIzAwMDAwMCIgZm9udC1mYW1pbHk9InNhbnMtc2VyaWYiIGZvbnQtc2l6ZT0iMTQiIGxlbmd0aEFkanVzdD0ic3BhY2luZyIgdGV4dExlbmd0aD0iMTgzIiB4PSIyNjQxLjk0ODkiIHk9IjE3My42MzIiPkNvbXBhcnRpciBFc3RhZG8gZGVsIFZpYWplPC90ZXh0PjwvZz48ZyBpZD0iZWxlbV9VQzEzIj48ZWxsaXBzZSBjeD0iMjMwOC42MjE4IiBjeT0iMTcwLjAyNDQiIGZpbGw9IiNGMUYxRjEiIHJ4PSIxMzAuNjIxOCIgcnk9IjI4LjUyNDQiIHN0eWxlPSJzdHJva2U6IzE4MTgxODtzdHJva2Utd2lkdGg6MC41OyIvPjx0ZXh0IGZpbGw9IiMwMDAwMDAiIGZvbnQtZmFtaWx5PSJzYW5zLXNlcmlmIiBmb250LXNpemU9IjE0IiBsZW5ndGhBZGp1c3Q9InNwYWNpbmciIHRleHRMZW5ndGg9IjIzMiIgeD0iMjE5Mi42MjE4IiB5PSIxNzMuNzY2NSI+UmFzdHJlYXIgQ29uZHVjdG9yIGVuIFRpZW1wbyBSZWFsPC90ZXh0PjwvZz48ZyBpZD0iZWxlbV9VQzE0Ij48ZWxsaXBzZSBjeD0iMTY3Mi42ODM0IiBjeT0iMTcwLjIzNjciIGZpbGw9IiNGMUYxRjEiIHJ4PSI2Ni42ODM0IiByeT0iMTUuNzM2NyIgc3R5bGU9InN0cm9rZTojMTgxODE4O3N0cm9rZS13aWR0aDowLjU7Ii8+PHRleHQgZmlsbD0iIzAwMDAwMCIgZm9udC1mYW1pbHk9InNhbnMtc2VyaWYiIGZvbnQtc2l6ZT0iMTQiIGxlbmd0aEFkanVzdD0ic3BhY2luZyIgdGV4dExlbmd0aD0iOTEiIHg9IjE2MjcuMTgzNCIgeT0iMTczLjk3ODkiPkFjZXB0YXIgVmlhamU8L3RleHQ+PC9nPjxnIGlkPSJlbGVtX1VDMTUiPjxlbGxpcHNlIGN4PSIyNzYuNDY2MyIgY3k9IjE2OS44OTMzIiBmaWxsPSIjRjFGMUYxIiByeD0iNzIuNDY2MyIgcnk9IjE2Ljg5MzMiIHN0eWxlPSJzdHJva2U6IzE4MTgxODtzdHJva2Utd2lkdGg6MC41OyIvPjx0ZXh0IGZpbGw9IiMwMDAwMDAiIGZvbnQtZmFtaWx5PSJzYW5zLXNlcmlmIiBmb250LXNpemU9IjE0IiBsZW5ndGhBZGp1c3Q9InNwYWNpbmciIHRleHRMZW5ndGg9IjEwNSIgeD0iMjIzLjk2NjMiIHk9IjE3My42MzU1Ij5GaW5hbGl6YXIgVmlhamU8L3RleHQ+PC9nPjxnIGlkPSJlbGVtX1VDMTYiPjxlbGxpcHNlIGN4PSI0NjUuNTEzMiIgY3k9IjE3MC4yMDI2IiBmaWxsPSIjRjFGMUYxIiByeD0iODEuNTEzMiIgcnk9IjE4LjcwMjYiIHN0eWxlPSJzdHJva2U6IzE4MTgxODtzdHJva2Utd2lkdGg6MC41OyIvPjx0ZXh0IGZpbGw9IiMwMDAwMDAiIGZvbnQtZmFtaWx5PSJzYW5zLXNlcmlmIiBmb250LXNpemU9IjE0IiBsZW5ndGhBZGp1c3Q9InNwYWNpbmciIHRleHRMZW5ndGg9IjEyNiIgeD0iNDAyLjUxMzIiIHk9IjE3My45NDQ4Ij5DYWxpZmljYXIgUGFzYWplcm88L3RleHQ+PC9nPjxnIGlkPSJlbGVtX1VDMTciPjxlbGxpcHNlIGN4PSI2NzkuMjYzMyIgY3k9IjE2OS44NTI3IiBmaWxsPSIjRjFGMUYxIiByeD0iOTcuMjYzMyIgcnk9IjIxLjg1MjciIHN0eWxlPSJzdHJva2U6IzE4MTgxODtzdHJva2Utd2lkdGg6MC41OyIvPjx0ZXh0IGZpbGw9IiMwMDAwMDAiIGZvbnQtZmFtaWx5PSJzYW5zLXNlcmlmIiBmb250LXNpemU9IjE0IiBsZW5ndGhBZGp1c3Q9InNwYWNpbmciIHRleHRMZW5ndGg9IjE2MSIgeD0iNTk4Ljc2MzMiIHk9IjE3My41OTQ4Ij5WZXIgSGlzdG9yaWFsIGRlIFZpYWplczwvdGV4dD48L2c+PGcgaWQ9ImVsZW1fVUMxOCI+PGVsbGlwc2UgY3g9Ijg3MC41MzY3IiBjeT0iMTcwLjEwNzMiIGZpbGw9IiNGMUYxRjEiIHJ4PSI1OC41MzY3IiByeT0iMTQuMTA3MyIgc3R5bGU9InN0cm9rZTojMTgxODE4O3N0cm9rZS13aWR0aDowLjU7Ii8+PHRleHQgZmlsbD0iIzAwMDAwMCIgZm9udC1mYW1pbHk9InNhbnMtc2VyaWYiIGZvbnQtc2l6ZT0iMTQiIGxlbmd0aEFkanVzdD0ic3BhY2luZyIgdGV4dExlbmd0aD0iNzAiIHg9IjgzNS41MzY3IiB5PSIxNzMuODQ5NSI+VmVyIFBlcmZpbDwvdGV4dD48L2c+PGcgaWQ9ImVsZW1fVUMxOSI+PGVsbGlwc2UgY3g9IjEwNDIuNDU1OCIgY3k9IjE3MC4wOTEyIiBmaWxsPSIjRjFGMUYxIiByeD0iNzguNDU1OCIgcnk9IjE4LjA5MTIiIHN0eWxlPSJzdHJva2U6IzE4MTgxODtzdHJva2Utd2lkdGg6MC41OyIvPjx0ZXh0IGZpbGw9IiMwMDAwMDAiIGZvbnQtZmFtaWx5PSJzYW5zLXNlcmlmIiBmb250LXNpemU9IjE0IiBsZW5ndGhBZGp1c3Q9InNwYWNpbmciIHRleHRMZW5ndGg9IjExOSIgeD0iOTgyLjk1NTgiIHk9IjE3My44MzMzIj5BY3R1YWxpemFyIFBlcmZpbDwvdGV4dD48L2c+PGcgaWQ9ImVsZW1fVUMyMCI+PGVsbGlwc2UgY3g9IjEyNDAuNjA2MiIgY3k9IjE2OS44MjEyIiBmaWxsPSIjRjFGMUYxIiByeD0iODQuNjA2MiIgcnk9IjE5LjMyMTIiIHN0eWxlPSJzdHJva2U6IzE4MTgxODtzdHJva2Utd2lkdGg6MC41OyIvPjx0ZXh0IGZpbGw9IiMwMDAwMDAiIGZvbnQtZmFtaWx5PSJzYW5zLXNlcmlmIiBmb250LXNpemU9IjE0IiBsZW5ndGhBZGp1c3Q9InNwYWNpbmciIHRleHRMZW5ndGg9IjEzMyIgeD0iMTE3NC4xMDYyIiB5PSIxNzMuNTYzNCI+VmVyIFJ1dGFzIFN1Z2VyaWRhczwvdGV4dD48L2c+PGcgaWQ9ImVsZW1fVUMyMSI+PGVsbGlwc2UgY3g9Ijg3LjUxMzIiIGN5PSIxNzAuMjAyNiIgZmlsbD0iI0YxRjFGMSIgcng9IjgxLjUxMzIiIHJ5PSIxOC43MDI2IiBzdHlsZT0ic3Ryb2tlOiMxODE4MTg7c3Ryb2tlLXdpZHRoOjAuNTsiLz48dGV4dCBmaWxsPSIjMDAwMDAwIiBmb250LWZhbWlseT0ic2Fucy1zZXJpZiIgZm9udC1zaXplPSIxNCIgbGVuZ3RoQWRqdXN0PSJzcGFjaW5nIiB0ZXh0TGVuZ3RoPSIxMjYiIHg9IjI0LjUxMzIiIHk9IjE3My45NDQ4Ij5Db250YWN0YXIgUGFzYWplcm88L3RleHQ+PC9nPjxnIGlkPSJlbGVtX1VDMjIiPjxlbGxpcHNlIGN4PSIyMDQ4LjU2MjIiIGN5PSIxNzAuMjEyNCIgZmlsbD0iI0YxRjFGMSIgcng9Ijk0LjA2MjIiIHJ5PSIyMS4yMTI0IiBzdHlsZT0ic3Ryb2tlOiMxODE4MTg7c3Ryb2tlLXdpZHRoOjAuNTsiLz48dGV4dCBmaWxsPSIjMDAwMDAwIiBmb250LWZhbWlseT0ic2Fucy1zZXJpZiIgZm9udC1zaXplPSIxNCIgbGVuZ3RoQWRqdXN0PSJzcGFjaW5nIiB0ZXh0TGVuZ3RoPSIxNTQiIHg9IjE5NzEuNTYyMiIgeT0iMTczLjk1NDYiPlJlY2liaXIgTm90aWZpY2FjaW9uZXM8L3RleHQ+PC9nPjxnIGlkPSJlbGVtX1VDMjMiPjxlbGxpcHNlIGN4PSI0NDQ0LjcyMjMiIGN5PSIxNjkuOTQ0NSIgZmlsbD0iI0YxRjFGMSIgcng9Ijk3LjcyMjMiIHJ5PSIyMS45NDQ1IiBzdHlsZT0ic3Ryb2tlOiMxODE4MTg7c3Ryb2tlLXdpZHRoOjAuNTsiLz48dGV4dCBmaWxsPSIjMDAwMDAwIiBmb250LWZhbWlseT0ic2Fucy1zZXJpZiIgZm9udC1zaXplPSIxNCIgbGVuZ3RoQWRqdXN0PSJzcGFjaW5nIiB0ZXh0TGVuZ3RoPSIxNjIiIHg9IjQzNjMuNzIyMyIgeT0iMTczLjY4NjciPkFkbWluaXN0cmFyIENvbmR1Y3RvcmVzPC90ZXh0PjwvZz48ZyBpZD0iZWxlbV9VQzI0Ij48ZWxsaXBzZSBjeD0iNDY2OC4zMzY0IiBjeT0iMTcwLjE2NzMiIGZpbGw9IiNGMUYxRjEiIHJ4PSI5MS4zMzY0IiByeT0iMjAuNjY3MyIgc3R5bGU9InN0cm9rZTojMTgxODE4O3N0cm9rZS13aWR0aDowLjU7Ii8+PHRleHQgZmlsbD0iIzAwMDAwMCIgZm9udC1mYW1pbHk9InNhbnMtc2VyaWYiIGZvbnQtc2l6ZT0iMTQiIGxlbmd0aEFkanVzdD0ic3BhY2luZyIgdGV4dExlbmd0aD0iMTQ4IiB4PSI0NTk0LjMzNjQiIHk9IjE3My45MDk1Ij5BZG1pbmlzdHJhciBQYXNhamVyb3M8L3RleHQ+PC9nPjxnIGlkPSJlbGVtX1VDMjUiPjxlbGxpcHNlIGN4PSI0ODk4LjcyNTIiIGN5PSIxNzAuMTQ1IiBmaWxsPSIjRjFGMUYxIiByeD0iMTAzLjcyNTIiIHJ5PSIyMy4xNDUiIHN0eWxlPSJzdHJva2U6IzE4MTgxODtzdHJva2Utd2lkdGg6MC41OyIvPjx0ZXh0IGZpbGw9IiMwMDAwMDAiIGZvbnQtZmFtaWx5PSJzYW5zLXNlcmlmIiBmb250LXNpemU9IjE0IiBsZW5ndGhBZGp1c3Q9InNwYWNpbmciIHRleHRMZW5ndGg9IjE3NSIgeD0iNDgxMS4yMjUyIiB5PSIxNzMuODg3MiI+VmVyIFJlcG9ydGVzIGRlIEFjdGl2aWRhZDwvdGV4dD48L2c+PGcgaWQ9ImVsZW1fVUMyNiI+PGVsbGlwc2UgY3g9IjUxMDkuNDY2MyIgY3k9IjE2OS44OTMzIiBmaWxsPSIjRjFGMUYxIiByeD0iNzIuNDY2MyIgcnk9IjE2Ljg5MzMiIHN0eWxlPSJzdHJva2U6IzE4MTgxODtzdHJva2Utd2lkdGg6MC41OyIvPjx0ZXh0IGZpbGw9IiMwMDAwMDAiIGZvbnQtZmFtaWx5PSJzYW5zLXNlcmlmIiBmb250LXNpemU9IjE0IiBsZW5ndGhBZGp1c3Q9InNwYWNpbmciIHRleHRMZW5ndGg9IjEwNSIgeD0iNTA1Ni45NjYzIiB5PSIxNzMuNjM1NSI+R2VzdGlvbmFyIFBhZ29zPC90ZXh0PjwvZz48ZyBpZD0iZWxlbV9VQzI3Ij48ZWxsaXBzZSBjeD0iNTMwOC4zMzY0IiBjeT0iMTcwLjE2NzMiIGZpbGw9IiNGMUYxRjEiIHJ4PSI5MS4zMzY0IiByeT0iMjAuNjY3MyIgc3R5bGU9InN0cm9rZTojMTgxODE4O3N0cm9rZS13aWR0aDowLjU7Ii8+PHRleHQgZmlsbD0iIzAwMDAwMCIgZm9udC1mYW1pbHk9InNhbnMtc2VyaWYiIGZvbnQtc2l6ZT0iMTQiIGxlbmd0aEFkanVzdD0ic3BhY2luZyIgdGV4dExlbmd0aD0iMTQ4IiB4PSI1MjM0LjMzNjQiIHk9IjE3My45MDk1Ij5HZXN0aW9uYXIgUHJvbW9jaW9uZXM8L3RleHQ+PC9nPjxnIGlkPSJlbGVtX1VDMjgiPjxlbGxpcHNlIGN4PSI1NTYyLjI4MDIiIGN5PSIxNjkuODU2IiBmaWxsPSIjRjFGMUYxIiByeD0iMTI3LjI4MDIiIHJ5PSIyNy44NTYiIHN0eWxlPSJzdHJva2U6IzE4MTgxODtzdHJva2Utd2lkdGg6MC41OyIvPjx0ZXh0IGZpbGw9IiMwMDAwMDAiIGZvbnQtZmFtaWx5PSJzYW5zLXNlcmlmIiBmb250LXNpemU9IjE0IiBsZW5ndGhBZGp1c3Q9InNwYWNpbmciIHRleHRMZW5ndGg9IjIyNSIgeD0iNTQ0OS43ODAyIiB5PSIxNzMuNTk4MiI+TW9uaXRvcmVhciBWaWFqZXMgZW4gVGllbXBvIFJlYWw8L3RleHQ+PC9nPjxnIGlkPSJlbGVtX1VDMjkiPjxlbGxpcHNlIGN4PSI1ODI4LjcyNTIiIGN5PSIxNzAuMTQ1IiBmaWxsPSIjRjFGMUYxIiByeD0iMTAzLjcyNTIiIHJ5PSIyMy4xNDUiIHN0eWxlPSJzdHJva2U6IzE4MTgxODtzdHJva2Utd2lkdGg6MC41OyIvPjx0ZXh0IGZpbGw9IiMwMDAwMDAiIGZvbnQtZmFtaWx5PSJzYW5zLXNlcmlmIiBmb250LXNpemU9IjE0IiBsZW5ndGhBZGp1c3Q9InNwYWNpbmciIHRleHRMZW5ndGg9IjE3NSIgeD0iNTc0MS4yMjUyIiB5PSIxNzMuODg3MiI+R2VuZXJhciBBbiYjMjI1O2xpc2lzIGRlIERhdG9zPC90ZXh0PjwvZz48ZyBpZD0iZWxlbV9VQzMwIj48ZWxsaXBzZSBjeD0iMTYzNS41NDU2IiBjeT0iNDM3LjMwOTEiIGZpbGw9IiNGMUYxRjEiIHJ4PSI2OS41NDU2IiByeT0iMTYuMzA5MSIgc3R5bGU9InN0cm9rZTojMTgxODE4O3N0cm9rZS13aWR0aDowLjU7Ii8+PHRleHQgZmlsbD0iIzAwMDAwMCIgZm9udC1mYW1pbHk9InNhbnMtc2VyaWYiIGZvbnQtc2l6ZT0iMTQiIGxlbmd0aEFkanVzdD0ic3BhY2luZyIgdGV4dExlbmd0aD0iOTgiIHg9IjE1ODYuNTQ1NiIgeT0iNDQxLjA1MTMiPlByb2Nlc2FyIFBhZ29zPC90ZXh0PjwvZz48ZyBpZD0iZWxlbV9VQzMxIj48ZWxsaXBzZSBjeD0iMjYyOS4zODM5IiBjeT0iNDM3LjU3NjgiIGZpbGw9IiNGMUYxRjEiIHJ4PSI5MC44ODM5IiByeT0iMjAuNTc2OCIgc3R5bGU9InN0cm9rZTojMTgxODE4O3N0cm9rZS13aWR0aDowLjU7Ii8+PHRleHQgZmlsbD0iIzAwMDAwMCIgZm9udC1mYW1pbHk9InNhbnMtc2VyaWYiIGZvbnQtc2l6ZT0iMTQiIGxlbmd0aEFkanVzdD0ic3BhY2luZyIgdGV4dExlbmd0aD0iMTQ3IiB4PSIyNTU1Ljg4MzkiIHk9IjQ0MS4zMTkiPkVudmlhciBOb3RpZmljYWNpb25lczwvdGV4dD48L2c+PGcgaWQ9ImVsZW1fVUMzMiI+PGVsbGlwc2UgY3g9IjE5MDEuMzAzNiIgY3k9IjQzNy4yNjA3IiBmaWxsPSIjRjFGMUYxIiByeD0iMTI2LjgwMzYiIHJ5PSIyNy43NjA3IiBzdHlsZT0ic3Ryb2tlOiMxODE4MTg7c3Ryb2tlLXdpZHRoOjAuNTsiLz48dGV4dCBmaWxsPSIjMDAwMDAwIiBmb250LWZhbWlseT0ic2Fucy1zZXJpZiIgZm9udC1zaXplPSIxNCIgbGVuZ3RoQWRqdXN0PSJzcGFjaW5nIiB0ZXh0TGVuZ3RoPSIyMjQiIHg9IjE3ODkuMzAzNiIgeT0iNDQxLjAwMjkiPlByb3ZlZXIgRGF0b3MgZGUgR2VvbG9jYWxpemFjaSYjMjQzO248L3RleHQ+PC9nPjwhLS1saW5rIFBhc2FqZXJvIHRvIFVDMS0tPjxnIGlkPSJsaW5rX1Bhc2FqZXJvX1VDMSI+PHBhdGggZD0iTTI5MjYuMzEsNDQuNTUgQzI3NDEuNjUsNDguMzMgMTcwOC41OCw3Mi41IDE1ODguNSwxNDEuNSBDMTU1Ni41NiwxNTkuODUgMTUwMy40NjI1LDI1NC4zNDE0IDE0ODMuNTkyNSwyOTEuMTExNCAiIGZpbGw9Im5vbmUiIGlkPSJQYXNhamVyby10by1VQzEiIHN0eWxlPSJzdHJva2U6IzE4MTgxODtzdHJva2Utd2lkdGg6MS4wOyIvPjxwb2x5Z29uIGZpbGw9IiMxODE4MTgiIHBvaW50cz0iMTQ4MC43NCwyOTYuMzksMTQ4OC41Mzc4LDI5MC4zNzM4LDE0ODMuMTE3MSwyOTEuOTkxMiwxNDgxLjQ5OTcsMjg2LjU3MDUsMTQ4MC43NCwyOTYuMzkiIHN0eWxlPSJzdHJva2U6IzE4MTgxODtzdHJva2Utd2lkdGg6MS4wOyIvPjwvZz48IS0tbGluayBQYXNhamVybyB0byBVQzItLT48ZyBpZD0ibGlua19QYXNhamVyb19VQzIiPjxwYXRoIGQ9Ik0yOTI2LjQxLDQ0LjUzIEMyNzM4LjkxLDQ4LjIxIDE2NzIsNzAuNzQgMTUzMy41LDExMC41IEMxNTAxLjg0LDExOS41OSAxNDc0LjI5NDQsMTM2LjQ5MzYgMTQ1NC4yNDQ0LDE1MC42MjM2ICIgZmlsbD0ibm9uZSIgaWQ9IlBhc2FqZXJvLXRvLVVDMiIgc3R5bGU9InN0cm9rZTojMTgxODE4O3N0cm9rZS13aWR0aDoxLjA7Ii8+PHBvbHlnb24gZmlsbD0iIzE4MTgxOCIgcG9pbnRzPSIxNDQ5LjM0LDE1NC4wOCwxNDU5LjAwMDksMTUyLjE2NTEsMTQ1My40MjcsMTUxLjE5OTcsMTQ1NC4zOTI0LDE0NS42MjU4LDE0NDkuMzQsMTU0LjA4IiBzdHlsZT0ic3Ryb2tlOiMxODE4MTg7c3Ryb2tlLXdpZHRoOjEuMDsiLz48L2c+PCEtLWxpbmsgUGFzYWplcm8gdG8gVUMzLS0+PGcgaWQ9ImxpbmtfUGFzYWplcm9fVUMzIj48cGF0aCBkPSJNMjkyNi4yNyw0NC42MyBDMjgwNS44Myw0Ny43NSAyMzIzLjU0LDY0LjY1IDE5MzYuNSwxNDEuNSBDMTkxOS4xOSwxNDQuOTQgMTkwNi4xNzg4LDE0OC41MjM1IDE4OTAuMzE4OCwxNTMuNjUzNSAiIGZpbGw9Im5vbmUiIGlkPSJQYXNhamVyby10by1VQzMiIHN0eWxlPSJzdHJva2U6IzE4MTgxODtzdHJva2Utd2lkdGg6MS4wOyIvPjxwb2x5Z29uIGZpbGw9IiMxODE4MTgiIHBvaW50cz0iMTg4NC42MSwxNTUuNSwxODk0LjQwNDIsMTU2LjUzNjEsMTg4OS4zNjczLDE1My45NjEyLDE4OTEuOTQyMiwxNDguOTI0MywxODg0LjYxLDE1NS41IiBzdHlsZT0ic3Ryb2tlOiMxODE4MTg7c3Ryb2tlLXdpZHRoOjEuMDsiLz48L2c+PCEtLWxpbmsgUGFzYWplcm8gdG8gVUM0LS0+PGcgaWQ9ImxpbmtfUGFzYWplcm9fVUM0Ij48cGF0aCBkPSJNMjk4Mi43Nyw0OC40NyBDMzA2MS42Myw2MS4xMiAzMjkwLjU1LDk4Ljk5IDM0NzguNSwxNDEuNSBDMzQ5NS4zOCwxNDUuMzIgMzUwNy44NzcxLDE0OC40NDcxIDM1MjQuMjk3MSwxNTIuODc3MSAiIGZpbGw9Im5vbmUiIGlkPSJQYXNhamVyby10by1VQzQiIHN0eWxlPSJzdHJva2U6IzE4MTgxODtzdHJva2Utd2lkdGg6MS4wOyIvPjxwb2x5Z29uIGZpbGw9IiMxODE4MTgiIHBvaW50cz0iMzUzMC4wOSwxNTQuNDQsMzUyMi40NDI2LDE0OC4yMzM4LDM1MjUuMjYyNiwxNTMuMTM3NiwzNTIwLjM1ODgsMTU1Ljk1NzYsMzUzMC4wOSwxNTQuNDQiIHN0eWxlPSJzdHJva2U6IzE4MTgxODtzdHJva2Utd2lkdGg6MS4wOyIvPjwvZz48IS0tbGluayBQYXNhamVybyB0byBVQzUtLT48ZyBpZD0ibGlua19QYXNhamVyb19VQzUiPjxwYXRoIGQ9Ik0yOTgyLjgxLDQ2Ljc0IEMzMDgwLjU1LDU2LjQxIDM0MTIuNjUsOTEuMTQgMzY4My41LDE0MS41IEMzNzAwLjc2LDE0NC43MSAzNzEzLjQ3NDQsMTQ3LjQ0NTIgMzczMC41NDQ0LDE1MS41MjUyICIgZmlsbD0ibm9uZSIgaWQ9IlBhc2FqZXJvLXRvLVVDNSIgc3R5bGU9InN0cm9rZTojMTgxODE4O3N0cm9rZS13aWR0aDoxLjA7Ii8+PHBvbHlnb24gZmlsbD0iIzE4MTgxOCIgcG9pbnRzPSIzNzM2LjM4LDE1Mi45MiwzNzI4LjU1NjQsMTQ2LjkzNzQsMzczMS41MTcsMTUxLjc1NzcsMzcyNi42OTY3LDE1NC43MTgyLDM3MzYuMzgsMTUyLjkyIiBzdHlsZT0ic3Ryb2tlOiMxODE4MTg7c3Ryb2tlLXdpZHRoOjEuMDsiLz48L2c+PCEtLWxpbmsgUGFzYWplcm8gdG8gVUM2LS0+PGcgaWQ9ImxpbmtfUGFzYWplcm9fVUM2Ij48cGF0aCBkPSJNMjk4Mi41NSw0NS40MiBDMzA5OC4xMyw1MS41NiAzNTQ4LjY0LDc4LjQ4IDM5MTMuNSwxNDEuNSBDMzkzMS40NSwxNDQuNiAzOTQ0Ljk3NzgsMTQ3LjUyMDMgMzk2Mi40NDc4LDE1MS44NzAzICIgZmlsbD0ibm9uZSIgaWQ9IlBhc2FqZXJvLXRvLVVDNiIgc3R5bGU9InN0cm9rZTojMTgxODE4O3N0cm9rZS13aWR0aDoxLjA7Ii8+PHBvbHlnb24gZmlsbD0iIzE4MTgxOCIgcG9pbnRzPSIzOTY4LjI3LDE1My4zMiwzOTYwLjUwMzEsMTQ3LjI2MzksMzk2My40MTgxLDE1Mi4xMTE5LDM5NTguNTcwMiwxNTUuMDI2OSwzOTY4LjI3LDE1My4zMiIgc3R5bGU9InN0cm9rZTojMTgxODE4O3N0cm9rZS13aWR0aDoxLjA7Ii8+PC9nPjwhLS1saW5rIFBhc2FqZXJvIHRvIFVDNy0tPjxnIGlkPSJsaW5rX1Bhc2FqZXJvX1VDNyI+PHBhdGggZD0iTTI5MjYuNDksNTEuMTYgQzI4NjcuMzUsNjYuNDIgMjcyNS41NSwxMDMuODkgMjYwOC41LDE0MS41IEMyNTkzLDE0Ni40OCAyNTgxLjU3NiwxNTAuNTA0OCAyNTY3LjU0NiwxNTUuNzA0OCAiIGZpbGw9Im5vbmUiIGlkPSJQYXNhamVyby10by1VQzciIHN0eWxlPSJzdHJva2U6IzE4MTgxODtzdHJva2Utd2lkdGg6MS4wOyIvPjxwb2x5Z29uIGZpbGw9IiMxODE4MTgiIHBvaW50cz0iMjU2MS45MiwxNTcuNzksMjU3MS43NDkxLDE1OC40MTI5LDI1NjYuNjA4MywxNTYuMDUyMywyNTY4Ljk2ODksMTUwLjkxMTUsMjU2MS45MiwxNTcuNzkiIHN0eWxlPSJzdHJva2U6IzE4MTgxODtzdHJva2Utd2lkdGg6MS4wOyIvPjwvZz48IS0tbGluayBQYXNhamVybyB0byBVQzgtLT48ZyBpZD0ibGlua19QYXNhamVyb19VQzgiPjxwYXRoIGQ9Ik0yOTU0LjUsODAuODMgQzI5NTQuNSwxMDQuMzEgMjk1NC41LDEyNy42MyAyOTU0LjUsMTQ1Ljg0ICIgZmlsbD0ibm9uZSIgaWQ9IlBhc2FqZXJvLXRvLVVDOCIgc3R5bGU9InN0cm9rZTojMTgxODE4O3N0cm9rZS13aWR0aDoxLjA7Ii8+PHBvbHlnb24gZmlsbD0iIzE4MTgxOCIgcG9pbnRzPSIyOTU0LjUsMTUxLjg0LDI5NTguNSwxNDIuODQsMjk1NC41LDE0Ni44NCwyOTUwLjUsMTQyLjg0LDI5NTQuNSwxNTEuODQiIHN0eWxlPSJzdHJva2U6IzE4MTgxODtzdHJva2Utd2lkdGg6MS4wOyIvPjwvZz48IS0tbGluayBQYXNhamVybyB0byBVQzktLT48ZyBpZD0ibGlua19QYXNhamVyb19VQzkiPjxwYXRoIGQ9Ik0yOTgyLjU2LDUyLjQ5IEMzMDUwLjU1LDczLjA3IDMyMTkuMjg3MywxMjQuMTQxOSAzMzA4LjA5NzMsMTUxLjAyMTkgIiBmaWxsPSJub25lIiBpZD0iUGFzYWplcm8tdG8tVUM5IiBzdHlsZT0ic3Ryb2tlOiMxODE4MTg7c3Ryb2tlLXdpZHRoOjEuMDsiLz48cG9seWdvbiBmaWxsPSIjMTgxODE4IiBwb2ludHM9IjMzMTMuODQsMTUyLjc2LDMzMDYuMzg0NywxNDYuMzI0MywzMzA5LjA1NDQsMTUxLjMxMTUsMzMwNC4wNjcyLDE1My45ODEzLDMzMTMuODQsMTUyLjc2IiBzdHlsZT0ic3Ryb2tlOiMxODE4MTg7c3Ryb2tlLXdpZHRoOjEuMDsiLz48L2c+PCEtLWxpbmsgUGFzYWplcm8gdG8gVUMxMC0tPjxnIGlkPSJsaW5rX1Bhc2FqZXJvX1VDMTAiPjxwYXRoIGQ9Ik0yOTgyLjY4LDQ0LjMxIEMzMTE0LjI5LDQ2LjIgMzY4MS4xNCw1OC45OCA0MTM2LjUsMTQxLjUgQzQxNTQuNDEsMTQ0Ljc1IDQxNjguMDI5OCwxNDguMTc2NyA0MTg0LjcwOTgsMTUzLjE0NjcgIiBmaWxsPSJub25lIiBpZD0iUGFzYWplcm8tdG8tVUMxMCIgc3R5bGU9InN0cm9rZTojMTgxODE4O3N0cm9rZS13aWR0aDoxLjA7Ii8+PHBvbHlnb24gZmlsbD0iIzE4MTgxOCIgcG9pbnRzPSI0MTkwLjQ2LDE1NC44Niw0MTgyLjk3NywxNDguNDU2Niw0MTg1LjY2ODIsMTUzLjQzMjIsNDE4MC42OTI1LDE1Ni4xMjM1LDQxOTAuNDYsMTU0Ljg2IiBzdHlsZT0ic3Ryb2tlOiMxODE4MTg7c3Ryb2tlLXdpZHRoOjEuMDsiLz48L2c+PCEtLWxpbmsgUGFzYWplcm8gdG8gVUMxMS0tPjxnIGlkPSJsaW5rX1Bhc2FqZXJvX1VDMTEiPjxwYXRoIGQ9Ik0yOTgyLjU5LDYxLjY0IEMzMDIwLjUyLDg1LjQ3IDMwODIuNjE5NSwxMjQuNDc4MSAzMTIwLjQ2OTUsMTQ4LjI1ODEgIiBmaWxsPSJub25lIiBpZD0iUGFzYWplcm8tdG8tVUMxMSIgc3R5bGU9InN0cm9rZTojMTgxODE4O3N0cm9rZS13aWR0aDoxLjA7Ii8+PHBvbHlnb24gZmlsbD0iIzE4MTgxOCIgcG9pbnRzPSIzMTI1LjU1LDE1MS40NSwzMTIwLjA1NzIsMTQzLjI3NTEsMzEyMS4zMTYyLDE0OC43OTAxLDMxMTUuODAxMywxNTAuMDQ5MSwzMTI1LjU1LDE1MS40NSIgc3R5bGU9InN0cm9rZTojMTgxODE4O3N0cm9rZS13aWR0aDoxLjA7Ii8+PC9nPjwhLS1saW5rIFBhc2FqZXJvIHRvIFVDMTItLT48ZyBpZD0ibGlua19QYXNhamVyb19VQzEyIj48cGF0aCBkPSJNMjkyNi4wNiw2MC4wOSBDMjg4Ni42Niw4Mi4zNyAyODIwLjU4MjMsMTE5Ljc0NTcgMjc3Ni42NzIzLDE0NC41ODU3ICIgZmlsbD0ibm9uZSIgaWQ9IlBhc2FqZXJvLXRvLVVDMTIiIHN0eWxlPSJzdHJva2U6IzE4MTgxODtzdHJva2Utd2lkdGg6MS4wOyIvPjxwb2x5Z29uIGZpbGw9IiMxODE4MTgiIHBvaW50cz0iMjc3MS40NSwxNDcuNTQsMjc4MS4yNTI5LDE0Ni41OTAxLDI3NzUuODAxOSwxNDUuMDc4MSwyNzc3LjMxMzksMTM5LjYyNzEsMjc3MS40NSwxNDcuNTQiIHN0eWxlPSJzdHJva2U6IzE4MTgxODtzdHJva2Utd2lkdGg6MS4wOyIvPjwvZz48IS0tbGluayBQYXNhamVybyB0byBVQzEzLS0+PGcgaWQ9ImxpbmtfUGFzYWplcm9fVUMxMyI+PHBhdGggZD0iTTI5MjYuMzMsNDkuNDUgQzI4MzYuNDcsNjYuODQgMjU1OS43MzA3LDEyMC4zOTAxIDI0MDkuODYwNywxNDkuMzkwMSAiIGZpbGw9Im5vbmUiIGlkPSJQYXNhamVyby10by1VQzEzIiBzdHlsZT0ic3Ryb2tlOiMxODE4MTg7c3Ryb2tlLXdpZHRoOjEuMDsiLz48cG9seWdvbiBmaWxsPSIjMTgxODE4IiBwb2ludHM9IjI0MDMuOTcsMTUwLjUzLDI0MTMuNTY2LDE1Mi43NDc0LDI0MDguODc4OSwxNDkuNTgwMSwyNDEyLjA0NjIsMTQ0Ljg5MzEsMjQwMy45NywxNTAuNTMiIHN0eWxlPSJzdHJva2U6IzE4MTgxODtzdHJva2Utd2lkdGg6MS4wOyIvPjwvZz48IS0tbGluayBDb25kdWN0b3IgdG8gVUMyLS0+PGcgaWQ9ImxpbmtfQ29uZHVjdG9yX1VDMiI+PHBhdGggZD0iTTk4OC4xOSw1MS4zNCBDMTA1NC4zNSw2Ni44IDEyMTEuODUsMTA0LjM5IDEzNDIuNSwxNDEuNSBDMTM1OC4zNSwxNDYgMTM2OS45NjY5LDE0OS41NDY4IDEzODQuOTU2OSwxNTQuMzU2OCAiIGZpbGw9Im5vbmUiIGlkPSJDb25kdWN0b3ItdG8tVUMyIiBzdHlsZT0ic3Ryb2tlOiMxODE4MTg7c3Ryb2tlLXdpZHRoOjEuMDsiLz48cG9seWdvbiBmaWxsPSIjMTgxODE4IiBwb2ludHM9IjEzOTAuNjcsMTU2LjE5LDEzODMuMzIyNSwxNDkuNjMxNSwxMzg1LjkwOTEsMTU0LjY2MjMsMTM4MC44NzgyLDE1Ny4yNDg5LDEzOTAuNjcsMTU2LjE5IiBzdHlsZT0ic3Ryb2tlOiMxODE4MTg7c3Ryb2tlLXdpZHRoOjEuMDsiLz48L2c+PCEtLWxpbmsgQ29uZHVjdG9yIHRvIFVDMTQtLT48ZyBpZD0ibGlua19Db25kdWN0b3JfVUMxNCI+PHBhdGggZD0iTTk4OC4wOCw0OS40NyBDMTA3My4zMyw2NC4yNiAxMzE1LjI5LDEwNi4yNSAxNTE2LjUsMTQxLjUgQzE1NTEuNTgsMTQ3LjY1IDE1ODUuMTgxMywxNTMuNTY3MSAxNjE1LjY2MTMsMTU4Ljk0NzEgIiBmaWxsPSJub25lIiBpZD0iQ29uZHVjdG9yLXRvLVVDMTQiIHN0eWxlPSJzdHJva2U6IzE4MTgxODtzdHJva2Utd2lkdGg6MS4wOyIvPjxwb2x5Z29uIGZpbGw9IiMxODE4MTgiIHBvaW50cz0iMTYyMS41NywxNTkuOTksMTYxMy40MDIzLDE1NC40ODY1LDE2MTYuNjQ2MSwxNTkuMTIwOSwxNjEyLjAxMTcsMTYyLjM2NDcsMTYyMS41NywxNTkuOTkiIHN0eWxlPSJzdHJva2U6IzE4MTgxODtzdHJva2Utd2lkdGg6MS4wOyIvPjwvZz48IS0tbGluayBDb25kdWN0b3IgdG8gVUMxNS0tPjxnIGlkPSJsaW5rX0NvbmR1Y3Rvcl9VQzE1Ij48cGF0aCBkPSJNOTI0Ljg3LDQ3LjcyIEM4MzYuMDgsNTguNSA1NzcuMjYsOTIuMTIgMzY2LjUsMTQxLjUgQzM0OS44LDE0NS40MSAzMzcuMzgwOCwxNDguOTMwOSAzMjEuNzkwOCwxNTMuODYwOSAiIGZpbGw9Im5vbmUiIGlkPSJDb25kdWN0b3ItdG8tVUMxNSIgc3R5bGU9InN0cm9rZTojMTgxODE4O3N0cm9rZS13aWR0aDoxLjA7Ii8+PHBvbHlnb24gZmlsbD0iIzE4MTgxOCIgcG9pbnRzPSIzMTYuMDcsMTU1LjY3LDMyNS44NTcyLDE1Ni43NzAyLDMyMC44MzczLDE1NC4xNjI0LDMyMy40NDUxLDE0OS4xNDI1LDMxNi4wNywxNTUuNjciIHN0eWxlPSJzdHJva2U6IzE4MTgxODtzdHJva2Utd2lkdGg6MS4wOyIvPjwvZz48IS0tbGluayBDb25kdWN0b3IgdG8gVUMxNi0tPjxnIGlkPSJsaW5rX0NvbmR1Y3Rvcl9VQzE2Ij48cGF0aCBkPSJNOTI0LjkyLDUxLjU1IEM4NTguMjIsNjcuNTUgNjk4LjEsMTA2LjM0IDU2NC41LDE0MS41IEM1NDguMTEsMTQ1LjgxIDUzNi4wMjkxLDE0OS4wOTcxIDUyMC4wNDkxLDE1My41NTcxICIgZmlsbD0ibm9uZSIgaWQ9IkNvbmR1Y3Rvci10by1VQzE2IiBzdHlsZT0ic3Ryb2tlOiMxODE4MTg7c3Ryb2tlLXdpZHRoOjEuMDsiLz48cG9seWdvbiBmaWxsPSIjMTgxODE4IiBwb2ludHM9IjUxNC4yNywxNTUuMTcsNTI0LjAxNCwxNTYuNjAzMyw1MTkuMDg1OSwxNTMuODI1OSw1MjEuODYzNCwxNDguODk3OCw1MTQuMjcsMTU1LjE3IiBzdHlsZT0ic3Ryb2tlOiMxODE4MTg7c3Ryb2tlLXdpZHRoOjEuMDsiLz48L2c+PCEtLWxpbmsgQ29uZHVjdG9yIHRvIFVDMTctLT48ZyBpZD0ibGlua19Db25kdWN0b3JfVUMxNyI+PHBhdGggZD0iTTkyNC45OSw1OC4yMiBDODc0Ljk0LDgwLjgxIDc4Mi42NzksMTIyLjQ0MjIgNzI2LjgwOSwxNDcuNjUyMiAiIGZpbGw9Im5vbmUiIGlkPSJDb25kdWN0b3ItdG8tVUMxNyIgc3R5bGU9InN0cm9rZTojMTgxODE4O3N0cm9rZS13aWR0aDoxLjA7Ii8+PHBvbHlnb24gZmlsbD0iIzE4MTgxOCIgcG9pbnRzPSI3MjEuMzQsMTUwLjEyLDczMS4xODg3LDE1MC4wNjQ0LDcyNS44OTc1LDE0OC4wNjM1LDcyNy44OTg0LDE0Mi43NzIzLDcyMS4zNCwxNTAuMTIiIHN0eWxlPSJzdHJva2U6IzE4MTgxODtzdHJva2Utd2lkdGg6MS4wOyIvPjwvZz48IS0tbGluayBDb25kdWN0b3IgdG8gVUMxOC0tPjxnIGlkPSJsaW5rX0NvbmR1Y3Rvcl9VQzE4Ij48cGF0aCBkPSJNOTMxLjE2LDgwLjgzIEM5MTMuNzIsMTA2LjE4IDg5NC45OTEsMTMzLjQwNyA4ODIuODYxLDE1MS4wMzcgIiBmaWxsPSJub25lIiBpZD0iQ29uZHVjdG9yLXRvLVVDMTgiIHN0eWxlPSJzdHJva2U6IzE4MTgxODtzdHJva2Utd2lkdGg6MS4wOyIvPjxwb2x5Z29uIGZpbGw9IiMxODE4MTgiIHBvaW50cz0iODc5LjQ2LDE1NS45OCw4ODcuODU2OCwxNTAuODMyOCw4ODIuMjk0MSwxNTEuODYwOCw4ODEuMjY2MSwxNDYuMjk4Miw4NzkuNDYsMTU1Ljk4IiBzdHlsZT0ic3Ryb2tlOiMxODE4MTg7c3Ryb2tlLXdpZHRoOjEuMDsiLz48L2c+PCEtLWxpbmsgQ29uZHVjdG9yIHRvIFVDMTktLT48ZyBpZD0ibGlua19Db25kdWN0b3JfVUMxOSI+PHBhdGggZD0iTTk4MS44NCw4MC44MyBDOTk4LjA5LDEwNC40NSAxMDE1LjAwODgsMTI5LjA0NzIgMTAyNy41MTg4LDE0Ny4yMjcyICIgZmlsbD0ibm9uZSIgaWQ9IkNvbmR1Y3Rvci10by1VQzE5IiBzdHlsZT0ic3Ryb2tlOiMxODE4MTg7c3Ryb2tlLXdpZHRoOjEuMDsiLz48cG9seWdvbiBmaWxsPSIjMTgxODE4IiBwb2ludHM9IjEwMzAuOTIsMTUyLjE3LDEwMjkuMTEzMywxNDIuNDg4MywxMDI4LjA4NTYsMTQ4LjA1MSwxMDIyLjUyMjksMTQ3LjAyMzMsMTAzMC45MiwxNTIuMTciIHN0eWxlPSJzdHJva2U6IzE4MTgxODtzdHJva2Utd2lkdGg6MS4wOyIvPjwvZz48IS0tbGluayBDb25kdWN0b3IgdG8gVUMyMC0tPjxnIGlkPSJsaW5rX0NvbmR1Y3Rvcl9VQzIwIj48cGF0aCBkPSJNOTg4LjI1LDU3Ljk4IEMxMDQwLjk0LDgxLjE2IDExNDAuNzE4NSwxMjUuMDgyNiAxMTk3LjE2ODUsMTQ5LjkzMjYgIiBmaWxsPSJub25lIiBpZD0iQ29uZHVjdG9yLXRvLVVDMjAiIHN0eWxlPSJzdHJva2U6IzE4MTgxODtzdHJva2Utd2lkdGg6MS4wOyIvPjxwb2x5Z29uIGZpbGw9IiMxODE4MTgiIHBvaW50cz0iMTIwMi42NiwxNTIuMzUsMTE5Ni4wMzQ0LDE0NS4wNjI5LDExOTguMDgzOCwxNTAuMzM1NSwxMTkyLjgxMTIsMTUyLjM4NDksMTIwMi42NiwxNTIuMzUiIHN0eWxlPSJzdHJva2U6IzE4MTgxODtzdHJva2Utd2lkdGg6MS4wOyIvPjwvZz48IS0tbGluayBDb25kdWN0b3IgdG8gVUMyMS0tPjxnIGlkPSJsaW5rX0NvbmR1Y3Rvcl9VQzIxIj48cGF0aCBkPSJNOTI0LjY5LDQ2LjM2IEM4MTguOTYsNTQuNTcgNDY5Ljg2LDg0LjUyIDE4Ni41LDE0MS41IEMxNjkuMDEsMTQ1LjAyIDE1NS44NDgsMTQ4LjMyNzUgMTM5LjI2OCwxNTMuMDc3NSAiIGZpbGw9Im5vbmUiIGlkPSJDb25kdWN0b3ItdG8tVUMyMSIgc3R5bGU9InN0cm9rZTojMTgxODE4O3N0cm9rZS13aWR0aDoxLjA7Ii8+PHBvbHlnb24gZmlsbD0iIzE4MTgxOCIgcG9pbnRzPSIxMzMuNSwxNTQuNzMsMTQzLjI1MzYsMTU2LjA5NjYsMTM4LjMwNjYsMTUzLjM1MjksMTQxLjA1MDMsMTQ4LjQwNiwxMzMuNSwxNTQuNzMiIHN0eWxlPSJzdHJva2U6IzE4MTgxODtzdHJva2Utd2lkdGg6MS4wOyIvPjwvZz48IS0tbGluayBDb25kdWN0b3IgdG8gVUMyMi0tPjxnIGlkPSJsaW5rX0NvbmR1Y3Rvcl9VQzIyIj48cGF0aCBkPSJNOTg4LjAzLDQ1LjUxIEMxMTEwLjU1LDUxLjcyIDE1NjYuNjEsNzguMDIgMTkzNi41LDE0MS41IEMxOTU0LjQ2LDE0NC41OCAxOTY3Ljk3NzgsMTQ3LjUwMDMgMTk4NS40NDc4LDE1MS44NTAzICIgZmlsbD0ibm9uZSIgaWQ9IkNvbmR1Y3Rvci10by1VQzIyIiBzdHlsZT0ic3Ryb2tlOiMxODE4MTg7c3Ryb2tlLXdpZHRoOjEuMDsiLz48cG9seWdvbiBmaWxsPSIjMTgxODE4IiBwb2ludHM9IjE5OTEuMjcsMTUzLjMsMTk4My41MDMxLDE0Ny4yNDM5LDE5ODYuNDE4MSwxNTIuMDkxOSwxOTgxLjU3MDIsMTU1LjAwNjksMTk5MS4yNywxNTMuMyIgc3R5bGU9InN0cm9rZTojMTgxODE4O3N0cm9rZS13aWR0aDoxLjA7Ii8+PC9nPjwhLS1saW5rIEFkbWluaXN0cmFkb3IgdG8gVUMyMy0tPjxnIGlkPSJsaW5rX0FkbWluaXN0cmFkb3JfVUMyMyI+PHBhdGggZD0iTTUwNjMuMzMsNTEuMjQgQzQ5NjguNTYsNjYuMyA0NzQ1LjM1LDEwMi44NCA0NTU5LjUsMTQxLjUgQzQ1NDIuNjIsMTQ1LjAxIDQ1MzAuMjY1NSwxNDcuNzg0NSA0NTEzLjQ1NTUsMTUxLjgwNDUgIiBmaWxsPSJub25lIiBpZD0iQWRtaW5pc3RyYWRvci10by1VQzIzIiBzdHlsZT0ic3Ryb2tlOiMxODE4MTg7c3Ryb2tlLXdpZHRoOjEuMDsiLz48cG9seWdvbiBmaWxsPSIjMTgxODE4IiBwb2ludHM9IjQ1MDcuNjIsMTUzLjIsNDUxNy4zMDM1LDE1NC45OTcsNDUxMi40ODI5LDE1Mi4wMzcxLDQ1MTUuNDQyOCwxNDcuMjE2NCw0NTA3LjYyLDE1My4yIiBzdHlsZT0ic3Ryb2tlOiMxODE4MTg7c3Ryb2tlLXdpZHRoOjEuMDsiLz48L2c+PCEtLWxpbmsgQWRtaW5pc3RyYWRvciB0byBVQzI0LS0+PGcgaWQ9ImxpbmtfQWRtaW5pc3RyYWRvcl9VQzI0Ij48cGF0aCBkPSJNNTA2My4xNCw1Ny4xNCBDNDk4MS4wOSw4MC40IDQ4MTYuNTEyNiwxMjcuMDQzOCA0NzI4LjkxMjYsMTUxLjg3MzggIiBmaWxsPSJub25lIiBpZD0iQWRtaW5pc3RyYWRvci10by1VQzI0IiBzdHlsZT0ic3Ryb2tlOiMxODE4MTg7c3Ryb2tlLXdpZHRoOjEuMDsiLz48cG9seWdvbiBmaWxsPSIjMTgxODE4IiBwb2ludHM9IjQ3MjMuMTQsMTUzLjUxLDQ3MzIuODg5NywxNTQuOTA0MSw0NzI3Ljk1MDUsMTUyLjE0NjUsNDczMC43MDgxLDE0Ny4yMDczLDQ3MjMuMTQsMTUzLjUxIiBzdHlsZT0ic3Ryb2tlOiMxODE4MTg7c3Ryb2tlLXdpZHRoOjEuMDsiLz48L2c+PCEtLWxpbmsgQWRtaW5pc3RyYWRvciB0byBVQzI1LS0+PGcgaWQ9ImxpbmtfQWRtaW5pc3RyYWRvcl9VQzI1Ij48cGF0aCBkPSJNNTA2My40Niw3MS4yOCBDNTAyNC40MSw5NC40MSA0OTc0LjM5MjMsMTI0LjA0MjEgNDkzOC44MjIzLDE0NS4xMTIxICIgZmlsbD0ibm9uZSIgaWQ9IkFkbWluaXN0cmFkb3ItdG8tVUMyNSIgc3R5bGU9InN0cm9rZTojMTgxODE4O3N0cm9rZS13aWR0aDoxLjA7Ii8+PHBvbHlnb24gZmlsbD0iIzE4MTgxOCIgcG9pbnRzPSI0OTMzLjY2LDE0OC4xNyw0OTQzLjQ0MiwxNDcuMDI0Nyw0OTM3Ljk2MTksMTQ1LjYyMTgsNDkzOS4zNjQ4LDE0MC4xNDE2LDQ5MzMuNjYsMTQ4LjE3IiBzdHlsZT0ic3Ryb2tlOiMxODE4MTg7c3Ryb2tlLXdpZHRoOjEuMDsiLz48L2c+PCEtLWxpbmsgQWRtaW5pc3RyYWRvciB0byBVQzI2LS0+PGcgaWQ9ImxpbmtfQWRtaW5pc3RyYWRvcl9VQzI2Ij48cGF0aCBkPSJNNTEwOS41LDgwLjgzIEM1MTA5LjUsMTA0Ljc0IDUxMDkuNSwxMjguNzEgNTEwOS41LDE0Ni44MyAiIGZpbGw9Im5vbmUiIGlkPSJBZG1pbmlzdHJhZG9yLXRvLVVDMjYiIHN0eWxlPSJzdHJva2U6IzE4MTgxODtzdHJva2Utd2lkdGg6MS4wOyIvPjxwb2x5Z29uIGZpbGw9IiMxODE4MTgiIHBvaW50cz0iNTEwOS41LDE1Mi44Myw1MTEzLjUsMTQzLjgzLDUxMDkuNSwxNDcuODMsNTEwNS41LDE0My44Myw1MTA5LjUsMTUyLjgzIiBzdHlsZT0ic3Ryb2tlOiMxODE4MTg7c3Ryb2tlLXdpZHRoOjEuMDsiLz48L2c+PCEtLWxpbmsgQWRtaW5pc3RyYWRvciB0byBVQzI3LS0+PGcgaWQ9ImxpbmtfQWRtaW5pc3RyYWRvcl9VQzI3Ij48cGF0aCBkPSJNNTE1NS42NSw3Mi45OSBDNTE5My42Niw5Ni44NiA1MjQxLjMyOTIsMTI2LjgwODUgNTI3My44NjkyLDE0Ny4yNDg1ICIgZmlsbD0ibm9uZSIgaWQ9IkFkbWluaXN0cmFkb3ItdG8tVUMyNyIgc3R5bGU9InN0cm9rZTojMTgxODE4O3N0cm9rZS13aWR0aDoxLjA7Ii8+PHBvbHlnb24gZmlsbD0iIzE4MTgxOCIgcG9pbnRzPSI1Mjc4Ljk1LDE1MC40NCw1MjczLjQ1NjUsMTQyLjI2NTYsNTI3NC43MTYsMTQ3Ljc4MDQsNTI2OS4yMDEyLDE0OS4wMzk5LDUyNzguOTUsMTUwLjQ0IiBzdHlsZT0ic3Ryb2tlOiMxODE4MTg7c3Ryb2tlLXdpZHRoOjEuMDsiLz48L2c+PCEtLWxpbmsgQWRtaW5pc3RyYWRvciB0byBVQzI4LS0+PGcgaWQ9ImxpbmtfQWRtaW5pc3RyYWRvcl9VQzI4Ij48cGF0aCBkPSJNNTE1NS44NSw1Ni43OSBDNTIzMy40Miw3OC4xOSA1Mzg0LjUzNjIsMTE5Ljg5NCA1NDc5LjE1NjIsMTQ2LjAwNCAiIGZpbGw9Im5vbmUiIGlkPSJBZG1pbmlzdHJhZG9yLXRvLVVDMjgiIHN0eWxlPSJzdHJva2U6IzE4MTgxODtzdHJva2Utd2lkdGg6MS4wOyIvPjxwb2x5Z29uIGZpbGw9IiMxODE4MTgiIHBvaW50cz0iNTQ4NC45NCwxNDcuNiw1NDc3LjMyODMsMTQxLjM1MDEsNTQ4MC4xMjAxLDE0Ni4yNyw1NDc1LjIwMDIsMTQ5LjA2MTksNTQ4NC45NCwxNDcuNiIgc3R5bGU9InN0cm9rZTojMTgxODE4O3N0cm9rZS13aWR0aDoxLjA7Ii8+PC9nPjwhLS1saW5rIEFkbWluaXN0cmFkb3IgdG8gVUMyOS0tPjxnIGlkPSJsaW5rX0FkbWluaXN0cmFkb3JfVUMyOSI+PHBhdGggZD0iTTUxNTUuODIsNTAuNTUgQzUyNTYuNTIsNjUuMDIgNTUwMi44MSwxMDEuNTkgNTcwNy41LDE0MS41IEM1NzI0LjYzLDE0NC44NCA1NzM3LjE3NzcsMTQ3LjQ5NjggNTc1NC4zMzc3LDE1MS4zNzY4ICIgZmlsbD0ibm9uZSIgaWQ9IkFkbWluaXN0cmFkb3ItdG8tVUMyOSIgc3R5bGU9InN0cm9rZTojMTgxODE4O3N0cm9rZS13aWR0aDoxLjA7Ii8+PHBvbHlnb24gZmlsbD0iIzE4MTgxOCIgcG9pbnRzPSI1NzYwLjE5LDE1Mi43LDU3NTIuMjkzOCwxNDYuODEzNiw1NzU1LjMxMzEsMTUxLjU5NzMsNTc1MC41Mjk0LDE1NC42MTY3LDU3NjAuMTksMTUyLjciIHN0eWxlPSJzdHJva2U6IzE4MTgxODtzdHJva2Utd2lkdGg6MS4wOyIvPjwvZz48IS0tbGluayBTaXN0ZW1hUGFnb3MgdG8gVUMzMC0tPjxnIGlkPSJsaW5rX1Npc3RlbWFQYWdvc19VQzMwIj48cGF0aCBkPSJNMTYzNS41LDM0OC42OCBDMTYzNS41LDM3Mi42NCAxNjM1LjUsMzk2LjcxIDE2MzUuNSw0MTQuNzIgIiBmaWxsPSJub25lIiBpZD0iU2lzdGVtYVBhZ29zLXRvLVVDMzAiIHN0eWxlPSJzdHJva2U6IzE4MTgxODtzdHJva2Utd2lkdGg6MS4wOyIvPjxwb2x5Z29uIGZpbGw9IiMxODE4MTgiIHBvaW50cz0iMTYzNS41LDQyMC43MiwxNjM5LjUsNDExLjcyLDE2MzUuNSw0MTUuNzIsMTYzMS41LDQxMS43MiwxNjM1LjUsNDIwLjcyIiBzdHlsZT0ic3Ryb2tlOiMxODE4MTg7c3Ryb2tlLXdpZHRoOjEuMDsiLz48L2c+PCEtLWxpbmsgU2lzdGVtYU5vdGlmaWNhY2lvbmVzIHRvIFVDMzEtLT48ZyBpZD0ibGlua19TaXN0ZW1hTm90aWZpY2FjaW9uZXNfVUMzMSI+PHBhdGggZD0iTTI2MjkuNSwzNDguNjggQzI2MjkuNSwzNzAuOTIgMjYyOS41LDM5Mi40MiAyNjI5LjUsNDEwLjY2ICIgZmlsbD0ibm9uZSIgaWQ9IlNpc3RlbWFOb3RpZmljYWNpb25lcy10by1VQzMxIiBzdHlsZT0ic3Ryb2tlOiMxODE4MTg7c3Ryb2tlLXdpZHRoOjEuMDsiLz48cG9seWdvbiBmaWxsPSIjMTgxODE4IiBwb2ludHM9IjI2MjkuNSw0MTYuNjYsMjYzMy41LDQwNy42NiwyNjI5LjUsNDExLjY2LDI2MjUuNSw0MDcuNjYsMjYyOS41LDQxNi42NiIgc3R5bGU9InN0cm9rZTojMTgxODE4O3N0cm9rZS13aWR0aDoxLjA7Ii8+PC9nPjwhLS1saW5rIFNpc3RlbWFHZW9sb2NhbGl6YWNpb24gdG8gVUMzMi0tPjxnIGlkPSJsaW5rX1Npc3RlbWFHZW9sb2NhbGl6YWNpb25fVUMzMiI+PHBhdGggZD0iTTE5MDEuNSwzNDguNjggQzE5MDEuNSwzNjguMDUgMTkwMS41LDM4NS40MSAxOTAxLjUsNDAzLjE3ICIgZmlsbD0ibm9uZSIgaWQ9IlNpc3RlbWFHZW9sb2NhbGl6YWNpb24tdG8tVUMzMiIgc3R5bGU9InN0cm9rZTojMTgxODE4O3N0cm9rZS13aWR0aDoxLjA7Ii8+PHBvbHlnb24gZmlsbD0iIzE4MTgxOCIgcG9pbnRzPSIxOTAxLjUsNDA5LjE3LDE5MDUuNSw0MDAuMTcsMTkwMS41LDQwNC4xNywxODk3LjUsNDAwLjE3LDE5MDEuNSw0MDkuMTciIHN0eWxlPSJzdHJva2U6IzE4MTgxODtzdHJva2Utd2lkdGg6MS4wOyIvPjwvZz48IS0tcmV2ZXJzZSBsaW5rIFVDMiB0byBVQzEtLT48ZyBpZD0ibGlua19VQzJfVUMxIj48cGF0aCBkPSJNMTQzNi4yNzE0LDE5Mi4zOSBDMTQ0NC45NTE0LDIxOS44IDE0NjAuOTIsMjcwLjI2IDE0NjkuMTUsMjk2LjI1ICIgZmlsbD0ibm9uZSIgaWQ9IlVDMi1iYWNrdG8tVUMxIiBzdHlsZT0ic3Ryb2tlOiMxODE4MTg7c3Ryb2tlLXdpZHRoOjEuMDsiLz48cG9seWdvbiBmaWxsPSIjMTgxODE4IiBwb2ludHM9IjE0MzQuNDYsMTg2LjY3LDE0MzMuMzYzNywxOTYuNDU3NywxNDM1Ljk2OTUsMTkxLjQzNjcsMTQ0MC45OTA0LDE5NC4wNDI1LDE0MzQuNDYsMTg2LjY3IiBzdHlsZT0ic3Ryb2tlOiMxODE4MTg7c3Ryb2tlLXdpZHRoOjEuMDsiLz48dGV4dCBmaWxsPSIjMDAwMDAwIiBmb250LWZhbWlseT0ic2Fucy1zZXJpZiIgZm9udC1zaXplPSIxMyIgbGVuZ3RoQWRqdXN0PSJzcGFjaW5nIiB0ZXh0TGVuZ3RoPSI0NyIgeD0iMTQ1Mi41IiB5PSIyNDEuNzg5MSI+aW5jbHVkZTwvdGV4dD48L2c+PCEtLWxpbmsgVUMzIHRvIFNpc3RlbWFQYWdvcy0tPjxnIGlkPSJsaW5rX1VDM19TaXN0ZW1hUGFnb3MiPjxwYXRoIGQ9Ik0xODAwLjgxLDE4My4yOCBDMTc3MS40OSwxOTIuNjEgMTczMy41OSwyMDcuNDUgMTcwNC41LDIyOC41IEMxNjg3LjY4LDI0MC42NyAxNjc2LjAzNzIsMjUzLjA1MTEgMTY2NC4xMzcyLDI2OC40NjExICIgZmlsbD0ibm9uZSIgaWQ9IlVDMy10by1TaXN0ZW1hUGFnb3MiIHN0eWxlPSJzdHJva2U6IzE4MTgxODtzdHJva2Utd2lkdGg6MS4wOyIvPjxwb2x5Z29uIGZpbGw9IiMxODE4MTgiIHBvaW50cz0iMTY2MC40NywyNzMuMjEsMTY2OS4xMzY3LDI2OC41MzE1LDE2NjMuNTI2LDI2OS4yNTI2LDE2NjIuODA0OSwyNjMuNjQxOSwxNjYwLjQ3LDI3My4yMSIgc3R5bGU9InN0cm9rZTojMTgxODE4O3N0cm9rZS13aWR0aDoxLjA7Ii8+PHRleHQgZmlsbD0iIzAwMDAwMCIgZm9udC1mYW1pbHk9InNhbnMtc2VyaWYiIGZvbnQtc2l6ZT0iMTMiIGxlbmd0aEFkanVzdD0ic3BhY2luZyIgdGV4dExlbmd0aD0iNTUiIHg9IjE3MDUuNSIgeT0iMjQxLjc4OTEiPiYjMTcxO2V4dGVuZCYjMTg3OzwvdGV4dD48L2c+PCEtLWxpbmsgVUMzIHRvIFNpc3RlbWFOb3RpZmljYWNpb25lcy0tPjxnIGlkPSJsaW5rX1VDM19TaXN0ZW1hTm90aWZpY2FjaW9uZXMiPjxwYXRoIGQ9Ik0xODg1LjA4LDE4NC40OSBDMTkwMC44NSwxODkuNTYgMTkxOS4zOCwxOTQuOTQgMTkzNi41LDE5OC41IEMyMDUyLjEyLDIyMi41MiAyMDgzLjc1LDIxMC44IDIyMDAuNSwyMjguNSBDMjMxOC45MywyNDYuNDUgMjQ0OC43MTQ4LDI3Mi4wNzI4IDI1MzUuMjE0OCwyODkuOTkyOCAiIGZpbGw9Im5vbmUiIGlkPSJVQzMtdG8tU2lzdGVtYU5vdGlmaWNhY2lvbmVzIiBzdHlsZT0ic3Ryb2tlOiMxODE4MTg7c3Ryb2tlLXdpZHRoOjEuMDsiLz48cG9seWdvbiBmaWxsPSIjMTgxODE4IiBwb2ludHM9IjI1NDEuMDksMjkxLjIxLDI1MzMuMDg4NiwyODUuNDY3NCwyNTM2LjE5NCwyOTAuMTk1NywyNTMxLjQ2NTcsMjkzLjMwMTEsMjU0MS4wOSwyOTEuMjEiIHN0eWxlPSJzdHJva2U6IzE4MTgxODtzdHJva2Utd2lkdGg6MS4wOyIvPjx0ZXh0IGZpbGw9IiMwMDAwMDAiIGZvbnQtZmFtaWx5PSJzYW5zLXNlcmlmIiBmb250LXNpemU9IjEzIiBsZW5ndGhBZGp1c3Q9InNwYWNpbmciIHRleHRMZW5ndGg9IjU1IiB4PSIyMjg0LjUiIHk9IjI0MS43ODkxIj4mIzE3MTtleHRlbmQmIzE4Nzs8L3RleHQ+PC9nPjwhLS1saW5rIFVDMyB0byBTaXN0ZW1hR2VvbG9jYWxpemFjaW9uLS0+PGcgaWQ9ImxpbmtfVUMzX1Npc3RlbWFHZW9sb2NhbGl6YWNpb24iPjxwYXRoIGQ9Ik0xODUyLjgxLDE4Ni45NSBDMTg2MS4xLDIwNy45MSAxODczLjcyMjIsMjM5Ljc5MSAxODg0Ljg0MjIsMjY3Ljg5MSAiIGZpbGw9Im5vbmUiIGlkPSJVQzMtdG8tU2lzdGVtYUdlb2xvY2FsaXphY2lvbiIgc3R5bGU9InN0cm9rZTojMTgxODE4O3N0cm9rZS13aWR0aDoxLjA7Ii8+PHBvbHlnb24gZmlsbD0iIzE4MTgxOCIgcG9pbnRzPSIxODg3LjA1LDI3My40NywxODg3LjQ1NzcsMjYzLjYyOTYsMTg4NS4yMTAyLDI2OC44MjA4LDE4ODAuMDE5LDI2Ni41NzMzLDE4ODcuMDUsMjczLjQ3IiBzdHlsZT0ic3Ryb2tlOiMxODE4MTg7c3Ryb2tlLXdpZHRoOjEuMDsiLz48dGV4dCBmaWxsPSIjMDAwMDAwIiBmb250LWZhbWlseT0ic2Fucy1zZXJpZiIgZm9udC1zaXplPSIxMyIgbGVuZ3RoQWRqdXN0PSJzcGFjaW5nIiB0ZXh0TGVuZ3RoPSI1NSIgeD0iMTg3NS41IiB5PSIyNDEuNzg5MSI+JiMxNzE7ZXh0ZW5kJiMxODc7PC90ZXh0PjwvZz48IS0tbGluayBVQzE0IHRvIFNpc3RlbWFHZW9sb2NhbGl6YWNpb24tLT48ZyBpZD0ibGlua19VQzE0X1Npc3RlbWFHZW9sb2NhbGl6YWNpb24iPjxwYXRoIGQ9Ik0xNjk1LjI5LDE4NC44NCBDMTcyOS4wMSwyMDUuMyAxNzg4LjIwMTMsMjQxLjIyNjEgMTgzNi4wODEzLDI3MC4yOTYxICIgZmlsbD0ibm9uZSIgaWQ9IlVDMTQtdG8tU2lzdGVtYUdlb2xvY2FsaXphY2lvbiIgc3R5bGU9InN0cm9rZTojMTgxODE4O3N0cm9rZS13aWR0aDoxLjA7Ii8+PHBvbHlnb24gZmlsbD0iIzE4MTgxOCIgcG9pbnRzPSIxODQxLjIxLDI3My40MSwxODM1LjU5MjgsMjY1LjMyLDE4MzYuOTM2MSwyNzAuODE1MSwxODMxLjQ0MSwyNzIuMTU4MywxODQxLjIxLDI3My40MSIgc3R5bGU9InN0cm9rZTojMTgxODE4O3N0cm9rZS13aWR0aDoxLjA7Ii8+PHRleHQgZmlsbD0iIzAwMDAwMCIgZm9udC1mYW1pbHk9InNhbnMtc2VyaWYiIGZvbnQtc2l6ZT0iMTMiIGxlbmd0aEFkanVzdD0ic3BhY2luZyIgdGV4dExlbmd0aD0iNTUiIHg9IjE3ODguNSIgeT0iMjQxLjc4OTEiPiYjMTcxO2V4dGVuZCYjMTg3OzwvdGV4dD48L2c+PCEtLWxpbmsgVUMxNSB0byBTaXN0ZW1hUGFnb3MtLT48ZyBpZD0ibGlua19VQzE1X1Npc3RlbWFQYWdvcyI+PHBhdGggZD0iTTMxMy4xOCwxODQuNjcgQzMyOS4zLDE5MC4wMyAzNDguNiwxOTUuNTkgMzY2LjUsMTk4LjUgQzQ5MS43OCwyMTguOSAxMzg3LjE4LDE5MS4xOCAxNTA4LjUsMjI4LjUgQzE1MzguNjcsMjM3Ljc4IDE1NjMuNzQ4NSwyNTIuODIyNCAxNTg2Ljk1ODUsMjY5LjkxMjQgIiBmaWxsPSJub25lIiBpZD0iVUMxNS10by1TaXN0ZW1hUGFnb3MiIHN0eWxlPSJzdHJva2U6IzE4MTgxODtzdHJva2Utd2lkdGg6MS4wOyIvPjxwb2x5Z29uIGZpbGw9IiMxODE4MTgiIHBvaW50cz0iMTU5MS43OSwyNzMuNDcsMTU4Ni45MTQ0LDI2NC45MTI2LDE1ODcuNzYzNywyNzAuNTA1NCwxNTgyLjE3MSwyNzEuMzU0NywxNTkxLjc5LDI3My40NyIgc3R5bGU9InN0cm9rZTojMTgxODE4O3N0cm9rZS13aWR0aDoxLjA7Ii8+PHRleHQgZmlsbD0iIzAwMDAwMCIgZm9udC1mYW1pbHk9InNhbnMtc2VyaWYiIGZvbnQtc2l6ZT0iMTMiIGxlbmd0aEFkanVzdD0ic3BhY2luZyIgdGV4dExlbmd0aD0iNTUiIHg9IjE1NDQuNSIgeT0iMjQxLjc4OTEiPiYjMTcxO2V4dGVuZCYjMTg3OzwvdGV4dD48L2c+PCEtLWxpbmsgVUM5IHRvIFNpc3RlbWFOb3RpZmljYWNpb25lcy0tPjxnIGlkPSJsaW5rX1VDOV9TaXN0ZW1hTm90aWZpY2FjaW9uZXMiPjxwYXRoIGQ9Ik0zMzA4LjA5LDE4Ni4zNCBDMzI5MS4xNSwxOTAuNTEgMzI3Mi42NCwxOTQuODcgMzI1NS41LDE5OC41IEMzMDY0Ljc1LDIzOC44NiAyODQ1LjE0NCwyNzUuNjU4MyAyNzIzLjYzNCwyOTUuMTc4MyAiIGZpbGw9Im5vbmUiIGlkPSJVQzktdG8tU2lzdGVtYU5vdGlmaWNhY2lvbmVzIiBzdHlsZT0ic3Ryb2tlOiMxODE4MTg7c3Ryb2tlLXdpZHRoOjEuMDsiLz48cG9seWdvbiBmaWxsPSIjMTgxODE4IiBwb2ludHM9IjI3MTcuNzEsMjk2LjEzLDI3MjcuMjMwNSwyOTguNjUxOSwyNzIyLjY0NjcsMjk1LjMzNjksMjcyNS45NjE2LDI5MC43NTMxLDI3MTcuNzEsMjk2LjEzIiBzdHlsZT0ic3Ryb2tlOiMxODE4MTg7c3Ryb2tlLXdpZHRoOjEuMDsiLz48dGV4dCBmaWxsPSIjMDAwMDAwIiBmb250LWZhbWlseT0ic2Fucy1zZXJpZiIgZm9udC1zaXplPSIxMyIgbGVuZ3RoQWRqdXN0PSJzcGFjaW5nIiB0ZXh0TGVuZ3RoPSI2MSIgeD0iMzEwMy41IiB5PSIyNDEuNzg5MSI+JiMxNzE7aW5jbHVkZSYjMTg3OzwvdGV4dD48L2c+PCEtLWxpbmsgVUMyMiB0byBTaXN0ZW1hTm90aWZpY2FjaW9uZXMtLT48ZyBpZD0ibGlua19VQzIyX1Npc3RlbWFOb3RpZmljYWNpb25lcyI+PHBhdGggZD0iTTIxMDUuNzMsMTg2LjcgQzIxMjMuMiwxOTEuMDQgMjE0Mi41NCwxOTUuNDEgMjE2MC41LDE5OC41IEMyMjkyLjEyLDIyMS4xNSAyMzMwLjkxLDE5Mi40MiAyNDU5LjUsMjI4LjUgQzI0OTYuNTMsMjM4Ljg5IDI1MzAuMDczMiwyNTQuMTEwMyAyNTYxLjI3MzIsMjcwLjU3MDMgIiBmaWxsPSJub25lIiBpZD0iVUMyMi10by1TaXN0ZW1hTm90aWZpY2FjaW9uZXMiIHN0eWxlPSJzdHJva2U6IzE4MTgxODtzdHJva2Utd2lkdGg6MS4wOyIvPjxwb2x5Z29uIGZpbGw9IiMxODE4MTgiIHBvaW50cz0iMjU2Ni41OCwyNzMuMzcsMjU2MC40ODYzLDI2NS42MzI3LDI1NjIuMTU3NywyNzEuMDM2OSwyNTU2Ljc1MzQsMjcyLjcwODQsMjU2Ni41OCwyNzMuMzciIHN0eWxlPSJzdHJva2U6IzE4MTgxODtzdHJva2Utd2lkdGg6MS4wOyIvPjx0ZXh0IGZpbGw9IiMwMDAwMDAiIGZvbnQtZmFtaWx5PSJzYW5zLXNlcmlmIiBmb250LXNpemU9IjEzIiBsZW5ndGhBZGp1c3Q9InNwYWNpbmciIHRleHRMZW5ndGg9IjYxIiB4PSIyNDk5LjUiIHk9IjI0MS43ODkxIj4mIzE3MTtpbmNsdWRlJiMxODc7PC90ZXh0PjwvZz48IS0tbGluayBVQzEyIHRvIFNpc3RlbWFOb3RpZmljYWNpb25lcy0tPjxnIGlkPSJsaW5rX1VDMTJfU2lzdGVtYU5vdGlmaWNhY2lvbmVzIj48cGF0aCBkPSJNMjcxNi4zMywxOTMuOTUgQzI3MDAuMTcsMjE1LjU0IDI2NzkuMzE0NSwyNDMuNDI1OSAyNjYwLjQ3NDUsMjY4LjYwNTkgIiBmaWxsPSJub25lIiBpZD0iVUMxMi10by1TaXN0ZW1hTm90aWZpY2FjaW9uZXMiIHN0eWxlPSJzdHJva2U6IzE4MTgxODtzdHJva2Utd2lkdGg6MS4wOyIvPjxwb2x5Z29uIGZpbGw9IiMxODE4MTgiIHBvaW50cz0iMjY1Ni44OCwyNzMuNDEsMjY2NS40NzQ1LDI2OC42MDAyLDI2NTkuODc1NCwyNjkuNDA2NiwyNjU5LjA2OSwyNjMuODA3NSwyNjU2Ljg4LDI3My40MSIgc3R5bGU9InN0cm9rZTojMTgxODE4O3N0cm9rZS13aWR0aDoxLjA7Ii8+PHRleHQgZmlsbD0iIzAwMDAwMCIgZm9udC1mYW1pbHk9InNhbnMtc2VyaWYiIGZvbnQtc2l6ZT0iMTMiIGxlbmd0aEFkanVzdD0ic3BhY2luZyIgdGV4dExlbmd0aD0iNjEiIHg9IjI2ODkuNSIgeT0iMjQxLjc4OTEiPiYjMTcxO2luY2x1ZGUmIzE4Nzs8L3RleHQ+PC9nPjwhLS1saW5rIFVDMTMgdG8gU2lzdGVtYUdlb2xvY2FsaXphY2lvbi0tPjxnIGlkPSJsaW5rX1VDMTNfU2lzdGVtYUdlb2xvY2FsaXphY2lvbiI+PHBhdGggZD0iTTIyMzkuOTIsMTk0LjQyIEMyMTcyLjE4LDIxNy41NiAyMDczLjgyOCwyNTEuMTUwOCAxOTk4Ljk4OCwyNzYuNzEwOCAiIGZpbGw9Im5vbmUiIGlkPSJVQzEzLXRvLVNpc3RlbWFHZW9sb2NhbGl6YWNpb24iIHN0eWxlPSJzdHJva2U6IzE4MTgxODtzdHJva2Utd2lkdGg6MS4wOyIvPjxwb2x5Z29uIGZpbGw9IiMxODE4MTgiIHBvaW50cz0iMTk5My4zMSwyNzguNjUsMjAwMy4xMTk4LDI3OS41MjY1LDE5OTguMDQxNywyNzcuMDM0LDIwMDAuNTM0MiwyNzEuOTU1OSwxOTkzLjMxLDI3OC42NSIgc3R5bGU9InN0cm9rZTojMTgxODE4O3N0cm9rZS13aWR0aDoxLjA7Ii8+PHRleHQgZmlsbD0iIzAwMDAwMCIgZm9udC1mYW1pbHk9InNhbnMtc2VyaWYiIGZvbnQtc2l6ZT0iMTMiIGxlbmd0aEFkanVzdD0ic3BhY2luZyIgdGV4dExlbmd0aD0iNjEiIHg9IjIxMzAuNSIgeT0iMjQxLjc4OTEiPiYjMTcxO2luY2x1ZGUmIzE4Nzs8L3RleHQ+PC9nPjwhLS1saW5rIFNvcG9ydGUgdG8gVUMxMC0tPjxnIGlkPSJsaW5rX1NvcG9ydGVfVUMxMCI+PHBhdGggZD0iTTQyMzMuNSw4MC44MyBDNDIzMy41LDEwNC4zMSA0MjMzLjUsMTI3LjYzIDQyMzMuNSwxNDUuODQgIiBmaWxsPSJub25lIiBpZD0iU29wb3J0ZS10by1VQzEwIiBzdHlsZT0ic3Ryb2tlOiMxODE4MTg7c3Ryb2tlLXdpZHRoOjEuMDsiLz48cG9seWdvbiBmaWxsPSIjMTgxODE4IiBwb2ludHM9IjQyMzMuNSwxNTEuODQsNDIzNy41LDE0Mi44NCw0MjMzLjUsMTQ2Ljg0LDQyMjkuNSwxNDIuODQsNDIzMy41LDE1MS44NCIgc3R5bGU9InN0cm9rZTojMTgxODE4O3N0cm9rZS13aWR0aDoxLjA7Ii8+PC9nPjwhLS1TUkM9W2JMTkJSamltNEJwaEF1WlMzUFlJZHFLRzg3M0pqOFNLV0xGZHBhZVJXdUxDNllHVDVGc1I3ZGxrOS1KN2tnOTVZd182b0tzUTdVdlpYV3pNNndkOG5KdEp4MFNlVUs2Tzlrd2RPQ1ZXSWVoY3E3dFF3RWRGWFEtUjdIVFM2eU1RZFg4V1psT1d6cjhQaThKLSAtbkgyQmttT1FHMWhSd0stU2V3VzFKQjRoekJtOXJ3cGNhaTFtT2VtYWJidzJ4QUxETWx2Qi1JeV8xTi11WTBjSEw0U0RESEMweGJPbXpRRWZGSG5YaXNBM2k0bFdqVVNBVjgwLWZIbmlvZTdtZURpYU02R3lpWEh0OXZHM09HTHJrb3dMWUlLVXhFUTNBSDdLRUdwVFk0TFBzcXRZYXNjVS05cTg1dmw1TW1ucnp0QjdvQ1J3UEpqWVJDbXVwc2U5enhzaVJjTmYzTzdncUg0TVZZWXJGbXhMcGF0RGdrYkR2cUsxZXRlNUZBczBLZXV6aWhqTXBsX2xQOHg2SUlZckMtcXNwRGJpRVFERGlvRXJXUVFLYV9yREtGN21EVUtXMjNWRUVwc2FnbzFrT2JlTFZYWm1wdXNZZGVjVkVBWUxvTFdKN0RVMWtTQUlSRXRVYWRkaHRYNDUtVERlaWltbVZmV2tici1zOEJZM05EYm9kN0Vld1poYWh4SHlCQnFQSm5UMGZ4eTB4TkFDcnRmNG9fUV9Na21zcVR0V2s3ZV8xYzdRSHBOaS0wTWpDN01SQ1JqYTZzTVBJR1JobEpLbHZFMlR2cXhsdEwtMnZLQkZ4TTBSZlhoeVZBeHZQaFJSWnlvQ19Jbno4SjJ5Wk5lZ0RGQUMtUDZGN1R0SXJSb1lXUTlkVzRyaWZOLVV6N1g2aEo5d0tuNmVvanhiS0wwNkdETDM0bllPMWUzaW5ZT255MFkxZlA5Ty1DNElOZ2JJUkZUVUh3RWw5aWVIbDFHOXowcVhNT2ZENC1YSEdlanFueDZBS0hKMkZxOWRiMjdMdGJ1YWVVZFVOWU1YLVR2VTk2N1NWX3d4eEZSOC1DWS1tUXhDMnRvaHdvQnV6b09jcm9FSGZyeXYwRlhlY3VGM0kxUU1Ldkd5bUV2bDhJVjFhSHBUSEtwZWxnbEtVRFU4WXdUbDhTeUZUbGN5YW9SX1NZTU12Umw4RER0YVN6QUNCMkJfaWEtZFNYX10tLT48L2c+PC9zdmc+;" parent="1" vertex="1">
            <mxGeometry x="-4240" y="50" width="7320" height="580.62" as="geometry" />
          </mxCell>
        </UserObject>
        <mxCell id="QNh6IfQwhYWlKLYQW3Lv-20" style="edgeStyle=orthogonalEdgeStyle;rounded=0;orthogonalLoop=1;jettySize=auto;html=1;exitX=0.5;exitY=0.5;exitDx=0;exitDy=0;exitPerimeter=0;entryX=0;entryY=0.5;entryDx=0;entryDy=0;" parent="1" source="QNh6IfQwhYWlKLYQW3Lv-4" target="QNh6IfQwhYWlKLYQW3Lv-13" edge="1">
          <mxGeometry relative="1" as="geometry" />
        </mxCell>
        <mxCell id="QNh6IfQwhYWlKLYQW3Lv-25" style="edgeStyle=orthogonalEdgeStyle;rounded=0;orthogonalLoop=1;jettySize=auto;html=1;exitX=0.5;exitY=0.5;exitDx=0;exitDy=0;exitPerimeter=0;entryX=0;entryY=0.5;entryDx=0;entryDy=0;" parent="1" source="QNh6IfQwhYWlKLYQW3Lv-4" target="QNh6IfQwhYWlKLYQW3Lv-23" edge="1">
          <mxGeometry relative="1" as="geometry" />
        </mxCell>
        <mxCell id="QNh6IfQwhYWlKLYQW3Lv-56" style="edgeStyle=orthogonalEdgeStyle;rounded=0;orthogonalLoop=1;jettySize=auto;html=1;entryX=0;entryY=0.5;entryDx=0;entryDy=0;" parent="1" source="QNh6IfQwhYWlKLYQW3Lv-4" target="QNh6IfQwhYWlKLYQW3Lv-36" edge="1">
          <mxGeometry relative="1" as="geometry" />
        </mxCell>
        <mxCell id="QNh6IfQwhYWlKLYQW3Lv-93" style="edgeStyle=orthogonalEdgeStyle;rounded=0;orthogonalLoop=1;jettySize=auto;html=1;exitX=0.5;exitY=0.5;exitDx=0;exitDy=0;exitPerimeter=0;entryX=0;entryY=0.5;entryDx=0;entryDy=0;" parent="1" source="QNh6IfQwhYWlKLYQW3Lv-4" target="QNh6IfQwhYWlKLYQW3Lv-37" edge="1">
          <mxGeometry relative="1" as="geometry" />
        </mxCell>
        <mxCell id="QNh6IfQwhYWlKLYQW3Lv-94" style="edgeStyle=orthogonalEdgeStyle;rounded=0;orthogonalLoop=1;jettySize=auto;html=1;exitX=0.5;exitY=0.5;exitDx=0;exitDy=0;exitPerimeter=0;entryX=0;entryY=0.5;entryDx=0;entryDy=0;" parent="1" source="QNh6IfQwhYWlKLYQW3Lv-4" target="QNh6IfQwhYWlKLYQW3Lv-46" edge="1">
          <mxGeometry relative="1" as="geometry" />
        </mxCell>
        <mxCell id="QNh6IfQwhYWlKLYQW3Lv-95" style="edgeStyle=orthogonalEdgeStyle;rounded=0;orthogonalLoop=1;jettySize=auto;html=1;exitX=0.5;exitY=0.5;exitDx=0;exitDy=0;exitPerimeter=0;entryX=0;entryY=0.5;entryDx=0;entryDy=0;" parent="1" source="QNh6IfQwhYWlKLYQW3Lv-4" target="QNh6IfQwhYWlKLYQW3Lv-63" edge="1">
          <mxGeometry relative="1" as="geometry" />
        </mxCell>
        <mxCell id="QNh6IfQwhYWlKLYQW3Lv-4" value="Cliente" style="shape=umlActor;verticalLabelPosition=bottom;verticalAlign=top;html=1;" parent="1" vertex="1">
          <mxGeometry x="-5960" y="360" width="40" height="80" as="geometry" />
        </mxCell>
        <mxCell id="QNh6IfQwhYWlKLYQW3Lv-12" value="" style="swimlane;startSize=0;" parent="1" vertex="1">
          <mxGeometry x="-5520" y="30" width="1210" height="1180" as="geometry">
            <mxRectangle x="-5520" y="30" width="50" height="40" as="alternateBounds" />
          </mxGeometry>
        </mxCell>
        <mxCell id="QNh6IfQwhYWlKLYQW3Lv-22" value="include" style="edgeStyle=orthogonalEdgeStyle;rounded=0;orthogonalLoop=1;jettySize=auto;html=1;entryX=0;entryY=0.5;entryDx=0;entryDy=0;" parent="QNh6IfQwhYWlKLYQW3Lv-12" source="QNh6IfQwhYWlKLYQW3Lv-13" target="QNh6IfQwhYWlKLYQW3Lv-14" edge="1">
          <mxGeometry relative="1" as="geometry" />
        </mxCell>
        <mxCell id="QNh6IfQwhYWlKLYQW3Lv-13" value="Login" style="ellipse;whiteSpace=wrap;html=1;" parent="QNh6IfQwhYWlKLYQW3Lv-12" vertex="1">
          <mxGeometry x="60" y="40" width="140" height="60" as="geometry" />
        </mxCell>
        <mxCell id="QNh6IfQwhYWlKLYQW3Lv-14" value="Registrarse" style="ellipse;whiteSpace=wrap;html=1;" parent="QNh6IfQwhYWlKLYQW3Lv-12" vertex="1">
          <mxGeometry x="290" y="30" width="140" height="80" as="geometry" />
        </mxCell>
        <mxCell id="QNh6IfQwhYWlKLYQW3Lv-30" value="Extend" style="edgeStyle=orthogonalEdgeStyle;rounded=0;orthogonalLoop=1;jettySize=auto;html=1;entryX=0;entryY=0.5;entryDx=0;entryDy=0;" parent="QNh6IfQwhYWlKLYQW3Lv-12" source="QNh6IfQwhYWlKLYQW3Lv-23" target="QNh6IfQwhYWlKLYQW3Lv-28" edge="1">
          <mxGeometry relative="1" as="geometry" />
        </mxCell>
        <mxCell id="QNh6IfQwhYWlKLYQW3Lv-23" value="Ver perfil" style="ellipse;whiteSpace=wrap;html=1;" parent="QNh6IfQwhYWlKLYQW3Lv-12" vertex="1">
          <mxGeometry x="60" y="130" width="140" height="60" as="geometry" />
        </mxCell>
        <mxCell id="QNh6IfQwhYWlKLYQW3Lv-28" value="Actualizar Perfil" style="ellipse;whiteSpace=wrap;html=1;" parent="QNh6IfQwhYWlKLYQW3Lv-12" vertex="1">
          <mxGeometry x="300" y="130" width="140" height="60" as="geometry" />
        </mxCell>
        <mxCell id="QNh6IfQwhYWlKLYQW3Lv-36" value="Contactar Soporte" style="ellipse;whiteSpace=wrap;html=1;" parent="QNh6IfQwhYWlKLYQW3Lv-12" vertex="1">
          <mxGeometry x="50" y="900" width="140" height="60" as="geometry" />
        </mxCell>
        <mxCell id="QNh6IfQwhYWlKLYQW3Lv-90" style="edgeStyle=orthogonalEdgeStyle;rounded=0;orthogonalLoop=1;jettySize=auto;html=1;exitX=1;exitY=0.5;exitDx=0;exitDy=0;entryX=1;entryY=0.5;entryDx=0;entryDy=0;" parent="QNh6IfQwhYWlKLYQW3Lv-12" source="QNh6IfQwhYWlKLYQW3Lv-37" target="QNh6IfQwhYWlKLYQW3Lv-63" edge="1">
          <mxGeometry relative="1" as="geometry" />
        </mxCell>
        <mxCell id="QNh6IfQwhYWlKLYQW3Lv-37" value="Sistema de Pago" style="swimlane;horizontal=0;whiteSpace=wrap;html=1;" parent="QNh6IfQwhYWlKLYQW3Lv-12" vertex="1">
          <mxGeometry x="230" y="210" width="620" height="250" as="geometry">
            <mxRectangle x="230" y="210" width="40" height="120" as="alternateBounds" />
          </mxGeometry>
        </mxCell>
        <mxCell id="QNh6IfQwhYWlKLYQW3Lv-42" value="Include" style="edgeStyle=orthogonalEdgeStyle;rounded=0;orthogonalLoop=1;jettySize=auto;html=1;entryX=0;entryY=0.5;entryDx=0;entryDy=0;" parent="QNh6IfQwhYWlKLYQW3Lv-37" source="QNh6IfQwhYWlKLYQW3Lv-24" target="QNh6IfQwhYWlKLYQW3Lv-40" edge="1">
          <mxGeometry relative="1" as="geometry" />
        </mxCell>
        <mxCell id="QNh6IfQwhYWlKLYQW3Lv-43" value="Extend" style="edgeStyle=orthogonalEdgeStyle;rounded=0;orthogonalLoop=1;jettySize=auto;html=1;entryX=0.5;entryY=0;entryDx=0;entryDy=0;" parent="QNh6IfQwhYWlKLYQW3Lv-37" source="QNh6IfQwhYWlKLYQW3Lv-24" target="QNh6IfQwhYWlKLYQW3Lv-38" edge="1">
          <mxGeometry relative="1" as="geometry" />
        </mxCell>
        <mxCell id="QNh6IfQwhYWlKLYQW3Lv-45" value="Include" style="edgeStyle=orthogonalEdgeStyle;rounded=0;orthogonalLoop=1;jettySize=auto;html=1;exitX=1;exitY=0.5;exitDx=0;exitDy=0;" parent="QNh6IfQwhYWlKLYQW3Lv-37" source="QNh6IfQwhYWlKLYQW3Lv-24" target="QNh6IfQwhYWlKLYQW3Lv-44" edge="1">
          <mxGeometry relative="1" as="geometry" />
        </mxCell>
        <mxCell id="QNh6IfQwhYWlKLYQW3Lv-24" value="Informacion de pago" style="ellipse;whiteSpace=wrap;html=1;" parent="QNh6IfQwhYWlKLYQW3Lv-37" vertex="1">
          <mxGeometry x="50" y="30" width="140" height="60" as="geometry" />
        </mxCell>
        <mxCell id="QNh6IfQwhYWlKLYQW3Lv-38" value="Sistema de Moneda" style="ellipse;whiteSpace=wrap;html=1;" parent="QNh6IfQwhYWlKLYQW3Lv-37" vertex="1">
          <mxGeometry x="50" y="160" width="140" height="60" as="geometry" />
        </mxCell>
        <mxCell id="QNh6IfQwhYWlKLYQW3Lv-40" value="Plataformas Digitales" style="ellipse;whiteSpace=wrap;html=1;" parent="QNh6IfQwhYWlKLYQW3Lv-37" vertex="1">
          <mxGeometry x="270" y="160" width="140" height="60" as="geometry" />
        </mxCell>
        <mxCell id="QNh6IfQwhYWlKLYQW3Lv-44" value="Estadisticas de pago" style="ellipse;whiteSpace=wrap;html=1;" parent="QNh6IfQwhYWlKLYQW3Lv-37" vertex="1">
          <mxGeometry x="270" y="30" width="140" height="60" as="geometry" />
        </mxCell>
        <mxCell id="QNh6IfQwhYWlKLYQW3Lv-34" value="Aplicar Promociones" style="ellipse;whiteSpace=wrap;html=1;" parent="QNh6IfQwhYWlKLYQW3Lv-37" vertex="1">
          <mxGeometry x="440" y="95" width="140" height="60" as="geometry" />
        </mxCell>
        <mxCell id="QNh6IfQwhYWlKLYQW3Lv-55" value="" style="endArrow=none;dashed=1;html=1;dashPattern=1 3;strokeWidth=2;rounded=0;exitX=1;exitY=1;exitDx=0;exitDy=0;entryX=0;entryY=0.5;entryDx=0;entryDy=0;" parent="QNh6IfQwhYWlKLYQW3Lv-37" source="QNh6IfQwhYWlKLYQW3Lv-24" target="QNh6IfQwhYWlKLYQW3Lv-34" edge="1">
          <mxGeometry width="50" height="50" relative="1" as="geometry">
            <mxPoint x="190" y="80" as="sourcePoint" />
            <mxPoint x="440" y="140" as="targetPoint" />
          </mxGeometry>
        </mxCell>
        <mxCell id="QNh6IfQwhYWlKLYQW3Lv-46" value="Sistema de Notificaciones" style="swimlane;horizontal=0;whiteSpace=wrap;html=1;" parent="QNh6IfQwhYWlKLYQW3Lv-12" vertex="1">
          <mxGeometry x="230" y="480" width="480" height="220" as="geometry">
            <mxRectangle x="230" y="480" width="40" height="170" as="alternateBounds" />
          </mxGeometry>
        </mxCell>
        <mxCell id="QNh6IfQwhYWlKLYQW3Lv-48" value="Include" style="edgeStyle=orthogonalEdgeStyle;rounded=0;orthogonalLoop=1;jettySize=auto;html=1;entryX=0;entryY=0.5;entryDx=0;entryDy=0;" parent="QNh6IfQwhYWlKLYQW3Lv-46" source="QNh6IfQwhYWlKLYQW3Lv-32" target="QNh6IfQwhYWlKLYQW3Lv-47" edge="1">
          <mxGeometry relative="1" as="geometry" />
        </mxCell>
        <mxCell id="QNh6IfQwhYWlKLYQW3Lv-32" value="Recibir Notificaciones" style="ellipse;whiteSpace=wrap;html=1;" parent="QNh6IfQwhYWlKLYQW3Lv-46" vertex="1">
          <mxGeometry x="60" y="20" width="140" height="60" as="geometry" />
        </mxCell>
        <mxCell id="QNh6IfQwhYWlKLYQW3Lv-47" value="Asignacion de cita en calendario" style="ellipse;whiteSpace=wrap;html=1;" parent="QNh6IfQwhYWlKLYQW3Lv-46" vertex="1">
          <mxGeometry x="300" y="20" width="140" height="60" as="geometry" />
        </mxCell>
        <mxCell id="QNh6IfQwhYWlKLYQW3Lv-53" style="edgeStyle=orthogonalEdgeStyle;rounded=0;orthogonalLoop=1;jettySize=auto;html=1;exitX=1;exitY=0.5;exitDx=0;exitDy=0;entryX=0.5;entryY=1;entryDx=0;entryDy=0;" parent="QNh6IfQwhYWlKLYQW3Lv-46" source="QNh6IfQwhYWlKLYQW3Lv-49" target="QNh6IfQwhYWlKLYQW3Lv-47" edge="1">
          <mxGeometry relative="1" as="geometry" />
        </mxCell>
        <mxCell id="QNh6IfQwhYWlKLYQW3Lv-54" style="edgeStyle=orthogonalEdgeStyle;rounded=0;orthogonalLoop=1;jettySize=auto;html=1;exitX=0;exitY=0.5;exitDx=0;exitDy=0;entryX=0.5;entryY=1;entryDx=0;entryDy=0;" parent="QNh6IfQwhYWlKLYQW3Lv-46" source="QNh6IfQwhYWlKLYQW3Lv-49" target="QNh6IfQwhYWlKLYQW3Lv-32" edge="1">
          <mxGeometry relative="1" as="geometry" />
        </mxCell>
        <mxCell id="QNh6IfQwhYWlKLYQW3Lv-49" value="Uso de IA" style="rhombus;whiteSpace=wrap;html=1;" parent="QNh6IfQwhYWlKLYQW3Lv-46" vertex="1">
          <mxGeometry x="210" y="110" width="80" height="80" as="geometry" />
        </mxCell>
        <mxCell id="QNh6IfQwhYWlKLYQW3Lv-63" value="Sistema de Servicio" style="swimlane;horizontal=0;whiteSpace=wrap;html=1;" parent="QNh6IfQwhYWlKLYQW3Lv-12" vertex="1">
          <mxGeometry x="230" y="720" width="680" height="320" as="geometry">
            <mxRectangle x="230" y="720" width="40" height="140" as="alternateBounds" />
          </mxGeometry>
        </mxCell>
        <mxCell id="QNh6IfQwhYWlKLYQW3Lv-64" value="Include" style="edgeStyle=orthogonalEdgeStyle;rounded=0;orthogonalLoop=1;jettySize=auto;html=1;entryX=0;entryY=0.5;entryDx=0;entryDy=0;" parent="QNh6IfQwhYWlKLYQW3Lv-63" source="QNh6IfQwhYWlKLYQW3Lv-59" target="QNh6IfQwhYWlKLYQW3Lv-57" edge="1">
          <mxGeometry relative="1" as="geometry" />
        </mxCell>
        <mxCell id="QNh6IfQwhYWlKLYQW3Lv-68" value="Include" style="edgeStyle=orthogonalEdgeStyle;rounded=0;orthogonalLoop=1;jettySize=auto;html=1;entryX=0;entryY=0.5;entryDx=0;entryDy=0;" parent="QNh6IfQwhYWlKLYQW3Lv-63" source="QNh6IfQwhYWlKLYQW3Lv-59" target="QNh6IfQwhYWlKLYQW3Lv-65" edge="1">
          <mxGeometry relative="1" as="geometry" />
        </mxCell>
        <mxCell id="QNh6IfQwhYWlKLYQW3Lv-72" value="Extend" style="edgeStyle=orthogonalEdgeStyle;rounded=0;orthogonalLoop=1;jettySize=auto;html=1;entryX=0.5;entryY=0;entryDx=0;entryDy=0;" parent="QNh6IfQwhYWlKLYQW3Lv-63" source="QNh6IfQwhYWlKLYQW3Lv-59" target="QNh6IfQwhYWlKLYQW3Lv-71" edge="1">
          <mxGeometry relative="1" as="geometry" />
        </mxCell>
        <mxCell id="QNh6IfQwhYWlKLYQW3Lv-59" value="Solicitar Servicio" style="ellipse;whiteSpace=wrap;html=1;" parent="QNh6IfQwhYWlKLYQW3Lv-63" vertex="1">
          <mxGeometry x="50" y="30" width="140" height="60" as="geometry" />
        </mxCell>
        <mxCell id="QNh6IfQwhYWlKLYQW3Lv-57" value="Calificacion de Servicio" style="ellipse;whiteSpace=wrap;html=1;" parent="QNh6IfQwhYWlKLYQW3Lv-63" vertex="1">
          <mxGeometry x="280" width="140" height="60" as="geometry" />
        </mxCell>
        <mxCell id="QNh6IfQwhYWlKLYQW3Lv-65" value="Rastreo de Servicio" style="ellipse;whiteSpace=wrap;html=1;" parent="QNh6IfQwhYWlKLYQW3Lv-63" vertex="1">
          <mxGeometry x="280" y="80" width="140" height="60" as="geometry" />
        </mxCell>
        <mxCell id="QNh6IfQwhYWlKLYQW3Lv-71" value="Compartir en Redes" style="ellipse;whiteSpace=wrap;html=1;" parent="QNh6IfQwhYWlKLYQW3Lv-63" vertex="1">
          <mxGeometry x="50" y="140" width="140" height="60" as="geometry" />
        </mxCell>
        <mxCell id="QNh6IfQwhYWlKLYQW3Lv-86" style="edgeStyle=orthogonalEdgeStyle;rounded=0;orthogonalLoop=1;jettySize=auto;html=1;exitX=0;exitY=0.5;exitDx=0;exitDy=0;entryX=1;entryY=0.5;entryDx=0;entryDy=0;" parent="QNh6IfQwhYWlKLYQW3Lv-63" source="QNh6IfQwhYWlKLYQW3Lv-76" target="QNh6IfQwhYWlKLYQW3Lv-65" edge="1">
          <mxGeometry relative="1" as="geometry" />
        </mxCell>
        <mxCell id="QNh6IfQwhYWlKLYQW3Lv-87" style="edgeStyle=orthogonalEdgeStyle;rounded=0;orthogonalLoop=1;jettySize=auto;html=1;entryX=1;entryY=0.5;entryDx=0;entryDy=0;" parent="QNh6IfQwhYWlKLYQW3Lv-63" source="QNh6IfQwhYWlKLYQW3Lv-76" target="QNh6IfQwhYWlKLYQW3Lv-57" edge="1">
          <mxGeometry relative="1" as="geometry" />
        </mxCell>
        <mxCell id="QNh6IfQwhYWlKLYQW3Lv-76" value="Geolocalizacion" style="rhombus;whiteSpace=wrap;html=1;" parent="QNh6IfQwhYWlKLYQW3Lv-63" vertex="1">
          <mxGeometry x="480" y="10" width="110" height="100" as="geometry" />
        </mxCell>
        <mxCell id="QNh6IfQwhYWlKLYQW3Lv-79" value="" style="endArrow=none;dashed=1;html=1;dashPattern=1 3;strokeWidth=2;rounded=0;" parent="QNh6IfQwhYWlKLYQW3Lv-63" edge="1">
          <mxGeometry width="50" height="50" relative="1" as="geometry">
            <mxPoint x="190" y="170" as="sourcePoint" />
            <mxPoint x="600" y="170" as="targetPoint" />
          </mxGeometry>
        </mxCell>
        <mxCell id="QNh6IfQwhYWlKLYQW3Lv-80" value="" style="endArrow=none;dashed=1;html=1;dashPattern=1 3;strokeWidth=2;rounded=0;entryX=1;entryY=0.5;entryDx=0;entryDy=0;" parent="QNh6IfQwhYWlKLYQW3Lv-63" target="QNh6IfQwhYWlKLYQW3Lv-46" edge="1">
          <mxGeometry width="50" height="50" relative="1" as="geometry">
            <mxPoint x="600" y="170" as="sourcePoint" />
            <mxPoint x="650" y="120" as="targetPoint" />
            <Array as="points">
              <mxPoint x="600" y="-130" />
            </Array>
          </mxGeometry>
        </mxCell>
        <mxCell id="QNh6IfQwhYWlKLYQW3Lv-27" value="Ver historial de servicios" style="ellipse;whiteSpace=wrap;html=1;" parent="QNh6IfQwhYWlKLYQW3Lv-63" vertex="1">
          <mxGeometry x="50" y="220" width="140" height="60" as="geometry" />
        </mxCell>
        <mxCell id="QNh6IfQwhYWlKLYQW3Lv-74" value="Extend" style="edgeStyle=orthogonalEdgeStyle;rounded=0;orthogonalLoop=1;jettySize=auto;html=1;entryX=0.5;entryY=1;entryDx=0;entryDy=0;" parent="QNh6IfQwhYWlKLYQW3Lv-12" source="QNh6IfQwhYWlKLYQW3Lv-73" target="QNh6IfQwhYWlKLYQW3Lv-36" edge="1">
          <mxGeometry relative="1" as="geometry" />
        </mxCell>
        <mxCell id="QNh6IfQwhYWlKLYQW3Lv-73" value="Uso de IA" style="rhombus;whiteSpace=wrap;html=1;" parent="QNh6IfQwhYWlKLYQW3Lv-12" vertex="1">
          <mxGeometry x="80" y="1010" width="80" height="80" as="geometry" />
        </mxCell>
        <mxCell id="QNh6IfQwhYWlKLYQW3Lv-96" value="Include" style="edgeStyle=orthogonalEdgeStyle;rounded=0;orthogonalLoop=1;jettySize=auto;html=1;" parent="QNh6IfQwhYWlKLYQW3Lv-12" source="QNh6IfQwhYWlKLYQW3Lv-91" edge="1">
          <mxGeometry relative="1" as="geometry">
            <mxPoint x="930" y="630" as="targetPoint" />
          </mxGeometry>
        </mxCell>
        <mxCell id="QNh6IfQwhYWlKLYQW3Lv-91" value="Procesar Pago" style="ellipse;whiteSpace=wrap;html=1;" parent="QNh6IfQwhYWlKLYQW3Lv-12" vertex="1">
          <mxGeometry x="1030" y="600" width="140" height="60" as="geometry" />
        </mxCell>
      </root>
    </mxGraphModel>
  </diagram>
</mxfile>
